<svg xmlns="http://www.w3.org/2000/svg" width="186" height="17" viewBox="0 0 186 17" fill="none">
  <path d="M0.76857 10.9132C0.276675 10.4314 -3.0287e-08 9.77559 0 9.09149L1.73206e-07 5.17924C1.80587e-07 5.01252 0.136895 4.87736 0.305763 4.87736L4.12781 4.87736C4.29667 4.87736 4.43357 5.01252 4.43357 5.17925V9.5566C4.43357 10.9738 5.59718 12.1226 7.03256 12.1226L17.1226 12.1226C17.2915 12.1226 17.4284 12.2578 17.4284 12.4245V16.1981C17.4284 16.3648 17.2915 16.5 17.1226 16.5L7.5107 16.5C6.81357 16.5 6.14566 16.2235 5.65702 15.7326L4.41441 14.4842L0.76857 10.9132Z" fill="#004FEE"/>
  <path d="M4.43357 4.57547C4.43357 4.7422 4.57046 4.87736 4.73933 4.87736L17.1227 4.87736C17.2916 4.87736 17.4285 4.7422 17.4285 4.57547V0.801887C17.4285 0.63516 17.2916 0.500001 17.1227 0.500001L4.73933 0.5C4.57046 0.5 4.43357 0.635159 4.43357 0.801887V4.57547Z" fill="#004FEE"/>
  <path d="M36.774 0.5C38.7049 0.5 40.0807 0.875812 40.9013 1.62744C41.738 2.36307 42.1563 3.67441 42.1563 5.56147C42.1563 6.28111 42.1161 6.8968 42.0357 7.40855C41.9552 7.92029 41.7943 8.36807 41.5529 8.75187C41.3116 9.11969 41.03 9.39955 40.7082 9.59145C40.248 9.84301 40.2977 10.6974 40.7573 10.9499C40.9093 11.0333 41.0458 11.1242 41.1668 11.2226C41.6978 11.6384 41.9633 12.3741 41.9633 13.4295V15.8846C41.9633 16.2245 41.6846 16.5 41.3408 16.5H37.6137C37.2699 16.5 36.9913 16.2245 36.9913 15.8846V14.9648C36.9913 14.1812 36.9188 13.5575 36.774 13.0937C36.6453 12.6299 36.0097 12.3981 34.8673 12.3981H27.3077C26.9639 12.3981 26.6852 12.6736 26.6852 13.0134V15.8846C26.6852 16.2245 26.4065 16.5 26.0628 16.5H22.4081C22.0643 16.5 21.7856 16.2245 21.7856 15.8846V1.11539C21.7856 0.775518 22.0643 0.5 22.4081 0.5H36.774ZM34.7225 8.512C35.8327 8.512 36.5246 8.37606 36.7982 8.1042C37.0717 7.83233 37.2085 7.22464 37.2085 6.28111C37.2085 5.75337 37.1522 5.36157 37.0395 5.1057C36.943 4.84983 36.7258 4.67391 36.3879 4.57796C36.066 4.48201 35.8006 4.42604 35.5914 4.41005C35.3822 4.39405 35.1328 4.38606 34.8432 4.38606H27.3077C26.9639 4.38606 26.6852 4.66158 26.6852 5.00144V7.89661C26.6852 8.23648 26.9639 8.512 27.3077 8.512H34.7225Z" fill="#0F0F0F"/>
  <path d="M63.5155 0.5C63.8592 0.5 64.1379 0.775517 64.1379 1.11538V3.53079C64.1379 3.87066 63.8592 4.14618 63.5155 4.14618H51.7028C51.3591 4.14618 51.0804 4.42169 51.0804 4.76156V6.26543C51.0804 6.60529 51.3591 6.88081 51.7028 6.88081H62.6466C62.9903 6.88081 63.269 7.15633 63.269 7.49619V9.43184C63.269 9.77171 62.9903 10.0472 62.6466 10.0472H51.7028C51.3591 10.0472 51.0804 10.3227 51.0804 10.6626V12.2624C51.0804 12.6023 51.3591 12.8778 51.7028 12.8778H63.5155C63.8592 12.8778 64.1379 13.1533 64.1379 13.4932V15.8846C64.1379 16.2245 63.8592 16.5 63.5155 16.5H46.8033C46.4595 16.5 46.1808 16.2245 46.1808 15.8846V1.11539C46.1808 0.775518 46.4595 0.5 46.8033 0.5H63.5155Z" fill="#0F0F0F"/>
  <path d="M81.9395 0.5C84.8519 0.5 86.8069 0.97976 87.8045 1.93928C88.8021 2.8988 89.3009 4.81784 89.3009 7.6964V9.54348C89.3009 10.2951 89.2848 10.8228 89.2526 11.1267C89.2365 11.4305 89.1481 12.0542 88.9872 12.9978C88.8262 13.9253 88.2711 14.7409 87.3218 15.4445C86.3724 16.1482 85.1817 16.5 83.7497 16.5H68.37C68.0262 16.5 67.7476 16.2245 67.7476 15.8846V1.11539C67.7476 0.775518 68.0262 0.5 68.37 0.5H81.9395ZM84.3531 8.55997V8.41604C84.3531 6.84883 84.1761 5.79335 83.8221 5.24963C83.4681 4.7059 82.5187 4.43403 80.974 4.43403H73.2696C72.9258 4.43403 72.6471 4.70955 72.6471 5.04942V11.9746C72.6471 12.3144 72.9258 12.59 73.2696 12.59H80.9016C82.4141 12.59 83.3635 12.3101 83.7497 11.7504C84.1519 11.1907 84.3531 10.1272 84.3531 8.55997Z" fill="#0F0F0F"/>
  <path d="M110.491 0.5C110.835 0.5 111.113 0.775517 111.113 1.11538V3.53079C111.113 3.87066 110.835 4.14618 110.491 4.14618H98.6783C98.3345 4.14618 98.0558 4.42169 98.0558 4.76156V6.26543C98.0558 6.60529 98.3345 6.88081 98.6783 6.88081H109.622C109.966 6.88081 110.244 7.15633 110.244 7.49619V9.43184C110.244 9.77171 109.966 10.0472 109.622 10.0472H98.6783C98.3345 10.0472 98.0558 10.3227 98.0558 10.6626V12.2624C98.0558 12.6023 98.3345 12.8778 98.6783 12.8778H110.491C110.835 12.8778 111.113 13.1533 111.113 13.4932V15.8846C111.113 16.2245 110.835 16.5 110.491 16.5H93.7787C93.4349 16.5 93.1562 16.2245 93.1562 15.8846V1.11539C93.1562 0.775518 93.4349 0.5 93.7787 0.5H110.491Z" fill="#0F0F0F"/>
  <path d="M129.311 16.5C129.122 16.5 128.943 16.4148 128.825 16.2685L120.418 5.85556C120.05 5.40065 119.309 5.6574 119.309 6.23946V15.8846C119.309 16.2245 119.03 16.5 118.686 16.5H115.321C114.978 16.5 114.699 16.2245 114.699 15.8846V1.11539C114.699 0.775518 114.978 0.5 115.321 0.5H122.196C122.385 0.5 122.564 0.585005 122.682 0.731022L131.089 11.1237C131.456 11.578 132.197 11.321 132.197 10.7393V1.11539C132.197 0.775518 132.476 0.5 132.82 0.5H136.185C136.529 0.5 136.807 0.775517 136.807 1.11538V15.8846C136.807 16.2245 136.529 16.5 136.185 16.5H129.311Z" fill="#0F0F0F"/>
  <path d="M159.231 12.8778C159.575 12.8778 159.854 13.1533 159.854 13.4932V15.8846C159.854 16.2245 159.575 16.5 159.231 16.5H140.902C140.558 16.5 140.28 16.2245 140.28 15.8846V13.1911C140.28 12.9943 140.375 12.8093 140.536 12.6935L150.873 5.2592C151.36 4.90861 151.109 4.14618 150.506 4.14618H141.216C140.872 4.14618 140.593 3.87066 140.593 3.53079V1.11539C140.593 0.775518 140.872 0.5 141.216 0.5H158.99C159.334 0.5 159.613 0.775517 159.613 1.11538V3.8314C159.613 4.02907 159.517 4.21471 159.354 4.33039L148.937 11.7634C148.448 12.1129 148.698 12.8778 149.302 12.8778H159.231Z" fill="#0F0F0F"/>
  <path d="M167.677 16.1781C167.568 16.3765 167.358 16.5 167.13 16.5H163.103C162.628 16.5 162.328 15.9962 162.558 15.5861L170.846 0.816842C170.956 0.621303 171.164 0.5 171.391 0.5H177.267C177.495 0.5 177.705 0.623486 177.814 0.821788L185.924 15.591C186.149 16.0011 185.849 16.5 185.377 16.5H181.395C181.162 16.5 180.949 16.3718 180.842 16.1676L179.67 13.9298C179.563 13.7256 179.35 13.5975 179.117 13.5975H169.464C169.235 13.5975 169.025 13.721 168.917 13.9194L167.677 16.1781ZM171.301 9.37982C171.078 9.78981 171.378 10.2871 171.849 10.2871H176.667C177.138 10.2871 177.439 9.78981 177.215 9.37982L174.806 4.9597C174.571 4.52839 173.945 4.52839 173.71 4.9597L171.301 9.37982Z" fill="#0F0F0F"/>
</svg>