<svg width="54" height="54" viewBox="0 0 54 54" fill="none" xmlns="http://www.w3.org/2000/svg">
<path d="M17.2125 47.0475C17.145 47.0475 17.055 47.0925 16.9875 47.0925C12.6225 44.9325 9.06751 41.355 6.88501 36.99C6.88501 36.9225 6.93001 36.8325 6.93001 36.765C9.67501 37.575 12.51 38.1825 15.3225 38.655C15.8175 41.49 16.4025 44.3025 17.2125 47.0475Z" fill="white"/>
<path d="M47.115 37.0125C44.8875 41.49 41.175 45.1125 36.6525 47.295C37.5075 44.4375 38.2275 41.5575 38.7 38.655C41.535 38.1825 44.325 37.575 47.07 36.765C47.0475 36.855 47.115 36.945 47.115 37.0125Z" fill="white"/>
<path d="M47.295 17.3475C44.46 16.4925 41.6025 15.795 38.7 15.3C38.2275 12.3975 37.53 9.51752 36.6525 6.70502C41.31 8.93252 45.0675 12.69 47.295 17.3475Z" fill="white"/>
<path d="M17.2125 6.95251C16.4025 9.69751 15.8175 12.4875 15.345 15.3225C12.4425 15.7725 9.56252 16.4925 6.70502 17.3475C8.88752 12.825 12.51 9.11251 16.9875 6.88501C17.055 6.88501 17.145 6.95251 17.2125 6.95251Z" fill="white"/>
<path d="M34.8525 14.8275C29.6325 14.2425 24.3675 14.2425 19.1475 14.8275C19.71 11.745 20.43 8.6625 21.4425 5.6925C21.4875 5.5125 21.465 5.3775 21.4875 5.1975C23.265 4.77 25.0875 4.5 27 4.5C28.89 4.5 30.735 4.77 32.49 5.1975C32.5125 5.3775 32.5125 5.5125 32.5575 5.6925C33.57 8.685 34.29 11.745 34.8525 14.8275Z" fill="white"/>
<path d="M14.8275 34.8525C11.7225 34.29 8.6625 33.57 5.6925 32.5575C5.5125 32.5125 5.3775 32.535 5.1975 32.5125C4.77 30.735 4.5 28.9125 4.5 27C4.5 25.11 4.77 23.265 5.1975 21.51C5.3775 21.4875 5.5125 21.4875 5.6925 21.4425C8.685 20.4525 11.7225 19.71 14.8275 19.1475C14.265 24.3675 14.265 29.6325 14.8275 34.8525Z" fill="white"/>
<path d="M49.5 27C49.5 28.9125 49.23 30.735 48.8025 32.5125C48.6225 32.535 48.4875 32.5125 48.3075 32.5575C45.315 33.5475 42.255 34.29 39.1725 34.8525C39.7575 29.6325 39.7575 24.3675 39.1725 19.1475C42.255 19.71 45.3375 20.43 48.3075 21.4425C48.4875 21.4875 48.6225 21.51 48.8025 21.51C49.23 23.2875 49.5 25.11 49.5 27Z" fill="white"/>
<path d="M34.8525 39.1725C34.29 42.2775 33.57 45.3375 32.5575 48.3075C32.5125 48.4875 32.5125 48.6225 32.49 48.8025C30.735 49.23 28.89 49.5 27 49.5C25.0875 49.5 23.265 49.23 21.4875 48.8025C21.465 48.6225 21.4875 48.4875 21.4425 48.3075C20.4525 45.315 19.71 42.2775 19.1475 39.1725C21.7575 39.465 24.3675 39.6675 27 39.6675C29.6325 39.6675 32.265 39.465 34.8525 39.1725Z" fill="white"/>
<path d="M35.4675 35.4675C29.84 36.1775 24.16 36.1775 18.5325 35.4675C17.8225 29.84 17.8225 24.16 18.5325 18.5325C24.16 17.8225 29.84 17.8225 35.4675 18.5325C36.1775 24.16 36.1775 29.84 35.4675 35.4675Z" fill="white"/>
</svg>
