<svg width="692" height="690" viewBox="0 0 692 690" fill="none" xmlns="http://www.w3.org/2000/svg">
<g clip-path="url(#clip0_134_1295)">
<g opacity="0.3">
<mask id="path-1-outside-1_134_1295" maskUnits="userSpaceOnUse" x="-393" y="-86" width="1479" height="762" fill="black">
<rect fill="white" x="-393" y="-86" width="1479" height="762"/>
<path d="M1083.99 -84H1083.83V-78.4983H1013.76V-84H1013.6V-78.4983H943.528V-84H943.37V-78.4983H873.298V-84H873.139V-78.4983H803.067V-84H802.908V-78.4983H732.837V-84H732.678V-78.4983H662.606V-84H662.448V-78.4983H592.376V-84H592.217V-78.4983H522.145V-84H521.986V-78.4983H451.915V-84H451.756V-78.4983H381.684V-84H381.525V-78.4983H311.454V-84H311.295V-78.4983H241.223V-84H241.064V-78.4983H170.992V-84H170.834V-78.4983H100.762V-84H100.603V-78.4983H30.5314V-84H30.3726V-78.4983H-39.6991V-84H-39.8579V-78.4983H-109.93V-84H-110.088V-78.4983H-180.16V-84H-180.319V-78.4983H-250.391V-84H-250.55V-78.4983H-320.621V-84H-320.78V-78.4983H-390.841V-84H-391V674H-390.841V668.498H-320.769V674H-320.611V668.498H-250.539V674H-250.38V668.498H-180.308V674H-180.15V668.498H-110.078V674H-109.919V668.498H-39.8473V674H-39.6885V668.498H30.3832V674H30.542V668.498H100.614V674H100.773V668.498H170.844V674H171.003V668.498H241.075V674H241.234V668.498H311.305V674H311.464V668.498H381.536V674H381.695V668.498H451.766V674H451.925V668.498H521.997V674H522.156V668.498H592.227V674H592.386V668.498H662.458V674H662.617V668.498H732.688V674H732.847V668.498H802.919V674H803.078V668.498H873.15V674H873.308V668.498H943.38V674H943.539V668.498H1013.61V674H1013.77V668.498H1083.84V674H1084V-84H1083.99ZM1014.85 -78.3895H1083.83V-28.7093H1013.76V-78.3895H1014.85ZM1083.83 -24.7838V21.0835H1013.76V-28.5967H1083.83V-24.7838ZM1083.83 25.5531V70.8762H1013.76V21.196H1083.83V25.5531ZM1083.83 75.89V120.669H1013.76V70.9888H1083.83V75.89ZM1083.83 126.227V170.462H1013.76V120.782H1083.83V126.227ZM1083.83 173.603V220.258H1013.76V170.578H1083.83V173.607V173.603ZM1083.83 223.94V270.051H1013.76V220.371H1083.83V223.94ZM1083.83 274.277V319.844H1013.76V270.164H1083.83V274.277ZM1083.83 324.614V369.637H1013.76V319.956H1083.83V324.614ZM1083.83 374.951V419.429H1013.76V369.749H1083.83V374.951ZM1083.83 425.288V469.226H1013.76V419.546H1083.83V425.291V425.288ZM1083.83 472.664V519.019H1013.76V469.338H1083.83V472.664ZM1083.83 523V568.811H1013.76V519.131H1083.83V523ZM1083.83 573.337V618.604H1013.76V568.924H1083.83V573.337ZM-390.841 614.78V568.913H-320.769V618.593H-390.841V614.78ZM-390.841 564.443V519.12H-320.769V568.8H-390.841V564.443ZM-390.841 514.106V469.327H-320.769V519.007H-390.841V514.106ZM-390.841 463.769V419.534H-320.769V469.215H-390.841V463.769ZM-390.841 416.393V369.738H-320.769V419.418H-390.841V416.39V416.393ZM-390.841 366.056V319.945H-320.769V369.625H-390.841V366.056ZM-390.841 315.719V270.152H-320.769V319.833H-390.841V315.719ZM-390.841 265.383V220.36H-320.769V270.04H-390.841V265.383ZM-390.841 215.046V170.567H-320.769V220.247H-390.841V215.046ZM-390.841 164.709V120.77H-320.769V170.451H-390.841V164.705V164.709ZM-390.841 117.333V70.9776H-320.769V120.658H-390.841V117.333ZM-390.841 66.9958V21.1848H-320.769V70.865H-390.841V66.9958ZM-390.841 16.6589V-28.608H-320.769V21.0722H-390.841V16.6589ZM1013.61 -24.7951V21.0722H943.534V-28.608H1013.61V-24.7951ZM1013.61 25.5418V70.865H943.534V21.1848H1013.61V25.5418ZM1013.61 75.8788V120.658H943.534V70.9776H1013.61V75.8788ZM1013.61 126.216V170.451H943.534V120.77H1013.61V126.216ZM1013.61 173.592V220.247H943.534V170.567H1013.61V173.595V173.592ZM1013.61 223.929V270.04H943.534V220.36H1013.61V223.929ZM1013.61 274.266V319.833H943.534V270.152H1013.61V274.266ZM1013.61 324.602V369.625H943.534V319.945H1013.61V324.602ZM1013.61 374.939V419.418H943.534V369.738H1013.61V374.939ZM1013.61 425.276V469.215H943.534V419.534H1013.61V425.28V425.276ZM1013.61 472.652V519.007H943.534V469.327H1013.61V472.652ZM1013.61 522.989V568.8H943.534V519.12H1013.61V522.989ZM-320.611 564.443V519.12H-250.539V568.8H-320.611V564.443ZM-320.611 514.106V469.327H-250.539V519.007H-320.611V514.106ZM-320.611 463.769V419.534H-250.539V469.215H-320.611V463.769ZM-320.611 416.393V369.738H-250.539V419.418H-320.611V416.39V416.393ZM-320.611 366.056V319.945H-250.539V369.625H-320.611V366.056ZM-320.611 315.719V270.152H-250.539V319.833H-320.611V315.719ZM-320.611 265.383V220.36H-250.539V270.04H-320.611V265.383ZM-320.611 215.046V170.567H-250.539V220.247H-320.611V215.046ZM-320.611 164.709V120.77H-250.539V170.451H-320.611V164.705V164.709ZM-320.611 117.333V70.9776H-250.539V120.658H-320.611V117.333ZM-320.611 66.9958V21.1848H-250.539V70.865H-320.611V66.9958ZM943.375 25.5418V70.865H873.303V21.1848H943.375V25.5418ZM943.375 75.8788V120.658H873.303V70.9776H943.375V75.8788ZM943.375 126.216V170.451H873.303V120.77H943.375V126.216ZM943.375 173.592V220.247H873.303V170.567H943.375V173.595V173.592ZM943.375 223.929V270.04H873.303V220.36H943.375V223.929ZM943.375 274.266V319.833H873.303V270.152H943.375V274.266ZM943.375 324.602V369.625H873.303V319.945H943.375V324.602ZM943.375 374.939V419.418H873.303V369.738H943.375V374.939ZM943.375 425.276V469.215H873.303V419.534H943.375V425.28V425.276ZM943.375 472.652V519.007H873.303V469.327H943.375V472.652ZM-250.38 514.106V469.327H-180.308V519.007H-250.38V514.106ZM-250.38 463.769V419.534H-180.308V469.215H-250.38V463.769ZM-250.38 416.393V369.738H-180.308V419.418H-250.38V416.39V416.393ZM-250.38 366.056V319.945H-180.308V369.625H-250.38V366.056ZM-250.38 315.719V270.152H-180.308V319.833H-250.38V315.719ZM-250.38 265.383V220.36H-180.308V270.04H-250.38V265.383ZM-250.38 215.046V170.567H-180.308V220.247H-250.38V215.046ZM-250.38 164.709V120.77H-180.308V170.451H-250.38V164.705V164.709ZM-250.38 117.333V70.9776H-180.308V120.658H-250.38V117.333ZM873.144 75.8788V120.658H803.073V70.9776H873.144V75.8788ZM873.144 126.216V170.451H803.073V120.77H873.144V126.216ZM873.144 173.592V220.247H803.073V170.567H873.144V173.595V173.592ZM873.144 223.929V270.04H803.073V220.36H873.144V223.929ZM873.144 274.266V319.833H803.073V270.152H873.144V274.266ZM873.144 324.602V369.625H803.073V319.945H873.144V324.602ZM873.144 374.939V419.418H803.073V369.738H873.144V374.939ZM873.144 425.276V469.215H803.073V419.534H873.144V425.28V425.276ZM-180.15 463.769V419.534H-110.078V469.215H-180.15V463.769ZM-180.15 416.393V369.738H-110.078V419.418H-180.15V416.39V416.393ZM-180.15 366.056V319.945H-110.078V369.625H-180.15V366.056ZM-180.15 315.719V270.152H-110.078V319.833H-180.15V315.719ZM-180.15 265.383V220.36H-110.078V270.04H-180.15V265.383ZM-180.15 215.046V170.567H-110.078V220.247H-180.15V215.046ZM-180.15 164.709V120.77H-110.078V170.451H-180.15V164.705V164.709ZM802.914 126.216V170.451H732.842V120.77H802.914V126.216ZM802.914 173.592V220.247H732.842V170.567H802.914V173.595V173.592ZM802.914 223.929V270.04H732.842V220.36H802.914V223.929ZM802.914 274.266V319.833H732.842V270.152H802.914V274.266ZM802.914 324.602V369.625H732.842V319.945H802.914V324.602ZM802.914 374.939V419.418H732.842V369.738H802.914V374.939ZM-109.919 416.393V369.738H-39.8473V419.418H-109.919V416.39V416.393ZM-109.919 366.056V319.945H-39.8473V369.625H-109.919V366.056ZM-109.919 315.719V270.152H-39.8473V319.833H-109.919V315.719ZM-109.919 265.383V220.36H-39.8473V270.04H-109.919V265.383ZM-109.919 215.046V170.567H-39.8473V220.247H-109.919V215.046ZM732.683 173.592V220.247H662.612V170.567H732.683V173.595V173.592ZM732.683 223.929V270.04H662.612V220.36H732.683V223.929ZM732.683 274.266V319.833H662.612V270.152H732.683V274.266ZM732.683 324.602V369.625H662.612V319.945H732.683V324.602ZM-39.6885 366.056V319.945H30.3832V369.625H-39.6885V366.056ZM-39.6885 315.719V270.152H30.3832V319.833H-39.6885V315.719ZM-39.6885 265.383V220.36H30.3832V270.04H-39.6885V265.383ZM662.453 223.929V270.04H592.381V220.36H662.453V223.929ZM662.453 274.266V319.833H592.381V270.152H662.453V274.266ZM30.5367 315.719V270.152H100.608V319.833H30.5367V315.719ZM100.767 318.68V270.152H170.839V319.833H100.767V318.68ZM170.998 318.68V270.152H241.07V319.833H170.998V318.68ZM241.228 318.68V270.152H311.3V319.833H241.228V318.68ZM311.459 318.68V270.152H381.531V319.833H311.459V318.68ZM381.689 318.68V270.152H451.761V319.833H381.689V318.68ZM451.92 318.68V270.152H521.992V319.833H451.92V318.68ZM522.15 318.68V270.152H592.222V319.833H522.15V318.68ZM592.222 220.971V270.044H522.15V220.363H592.222V220.971ZM521.992 220.971V270.044H451.92V220.363H521.992V220.971ZM451.761 220.971V270.044H381.689V220.363H451.761V220.971ZM381.531 220.971V270.044H311.459V220.363H381.531V220.971ZM311.3 220.971V270.044H241.228V220.363H311.3V220.971ZM241.07 220.971V270.044H170.998V220.363H241.07V220.971ZM170.839 220.971V270.044H100.767V220.363H170.839V220.971ZM100.608 220.971V270.044H30.5367V220.363H100.608V220.971ZM30.5367 369.017V319.945H100.608V369.625H30.5367V369.017ZM100.767 369.017V319.945H170.839V369.625H100.767V369.017ZM170.998 369.017V319.945H241.07V369.625H170.998V369.017ZM241.228 369.017V319.945H311.3V369.625H241.228V369.017ZM311.459 369.017V319.945H381.531V369.625H311.459V369.017ZM381.689 369.017V319.945H451.761V369.625H381.689V369.017ZM451.92 369.017V319.945H521.992V369.625H451.92V369.017ZM522.15 369.017V319.945H592.222V369.625H522.15V369.017ZM592.381 369.017V319.945H662.453V369.625H592.381V369.017ZM662.453 170.634V220.251H592.381V170.571H662.453V170.638V170.634ZM592.222 170.634V220.251H522.15V170.571H592.222V170.638V170.634ZM521.992 170.634V220.251H451.92V170.571H521.992V170.638V170.634ZM451.761 170.634V220.251H381.689V170.571H451.761V170.638V170.634ZM381.531 170.634V220.251H311.459V170.571H381.531V170.638V170.634ZM311.3 170.634V220.251H241.228V170.571H311.3V170.638V170.634ZM241.07 170.634V220.251H170.998V170.571H241.07V170.638V170.634ZM170.839 170.634V220.251H100.767V170.571H170.839V170.638V170.634ZM100.608 170.634V220.251H30.5367V170.571H100.608V170.638V170.634ZM30.3779 170.634V220.251H-39.6938V170.571H30.3779V170.638V170.634ZM-39.6938 419.354V369.738H30.3779V419.418H-39.6938V419.351V419.354ZM30.5367 419.354V369.738H100.608V419.418H30.5367V419.351V419.354ZM100.767 419.354V369.738H170.839V419.418H100.767V419.351V419.354ZM170.998 419.354V369.738H241.07V419.418H170.998V419.351V419.354ZM241.228 419.354V369.738H311.3V419.418H241.228V419.351V419.354ZM311.459 419.354V369.738H381.531V419.418H311.459V419.351V419.354ZM381.689 419.354V369.738H451.761V419.418H381.689V419.351V419.354ZM451.92 419.354V369.738H521.992V419.418H451.92V419.351V419.354ZM522.15 419.354V369.738H592.222V419.418H522.15V419.351V419.354ZM592.381 419.354V369.738H662.453V419.418H592.381V419.351V419.354ZM662.612 419.354V369.738H732.683V419.418H662.612V419.351V419.354ZM732.683 123.262V170.458H662.612V120.778H732.683V123.262ZM662.453 123.262V170.458H592.381V120.778H662.453V123.262ZM592.222 123.262V170.458H522.15V120.778H592.222V123.262ZM521.992 123.262V170.458H451.92V120.778H521.992V123.262ZM451.761 123.262V170.458H381.689V120.778H451.761V123.262ZM381.531 123.262V170.458H311.459V120.778H381.531V123.262ZM311.3 123.262V170.458H241.228V120.778H311.3V123.262ZM241.07 123.262V170.458H170.998V120.778H241.07V123.262ZM170.839 123.262V170.458H100.767V120.778H170.839V123.262ZM100.608 123.262V170.458H30.5367V120.778H100.608V123.262ZM30.3779 123.262V170.458H-39.6938V120.778H30.3779V123.262ZM-39.8526 123.262V170.458H-109.924V120.778H-39.8526V123.262ZM-109.924 466.73V419.534H-39.8526V469.215H-109.924V466.73ZM-39.6938 466.73V419.534H30.3779V469.215H-39.6938V466.73ZM30.5367 466.73V419.534H100.608V469.215H30.5367V466.73ZM100.767 466.73V419.534H170.839V469.215H100.767V466.73ZM170.998 466.73V419.534H241.07V469.215H170.998V466.73ZM241.228 466.73V419.534H311.3V469.215H241.228V466.73ZM311.459 466.73V419.534H381.531V469.215H311.459V466.73ZM381.689 466.73V419.534H451.761V469.215H381.689V466.73ZM451.92 466.73V419.534H521.992V469.215H451.92V466.73ZM522.15 466.73V419.534H592.222V469.215H522.15V466.73ZM592.381 466.73V419.534H662.453V469.215H592.381V466.73ZM662.612 466.73V419.534H732.683V469.215H662.612V466.73ZM732.842 466.73V419.534H802.914V469.215H732.842V466.73ZM802.914 72.9253V120.665H732.842V70.9851H802.914V72.9253ZM732.683 72.9253V120.665H662.612V70.9851H732.683V72.9253ZM662.453 72.9253V120.665H592.381V70.9851H662.453V72.9253ZM592.222 72.9253V120.665H522.15V70.9851H592.222V72.9253ZM521.992 72.9253V120.665H451.92V70.9851H521.992V72.9253ZM451.761 72.9253V120.665H381.689V70.9851H451.761V72.9253ZM381.531 72.9253V120.665H311.459V70.9851H381.531V72.9253ZM311.3 72.9253V120.665H241.228V70.9851H311.3V72.9253ZM241.07 72.9253V120.665H170.998V70.9851H241.07V72.9253ZM170.839 72.9253V120.665H100.767V70.9851H170.839V72.9253ZM100.608 72.9253V120.665H30.5367V70.9851H100.608V72.9253ZM30.3779 72.9253V120.665H-39.6938V70.9851H30.3779V72.9253ZM-39.8526 72.9253V120.665H-109.924V70.9851H-39.8526V72.9253ZM-110.083 72.9253V120.665H-180.155V70.9851H-110.083V72.9253ZM-180.155 517.067V469.327H-110.083V519.007H-180.155V517.067ZM-109.924 517.067V469.327H-39.8526V519.007H-109.924V517.067ZM-39.6938 517.067V469.327H30.3779V519.007H-39.6938V517.067ZM30.5367 517.067V469.327H100.608V519.007H30.5367V517.067ZM100.767 517.067V469.327H170.839V519.007H100.767V517.067ZM170.998 517.067V469.327H241.07V519.007H170.998V517.067ZM241.228 517.067V469.327H311.3V519.007H241.228V517.067ZM311.459 517.067V469.327H381.531V519.007H311.459V517.067ZM381.689 517.067V469.327H451.761V519.007H381.689V517.067ZM451.92 517.067V469.327H521.992V519.007H451.92V517.067ZM522.15 517.067V469.327H592.222V519.007H522.15V517.067ZM592.381 517.067V469.327H662.453V519.007H592.381V517.067ZM662.612 517.067V469.327H732.683V519.007H662.612V517.067ZM732.842 517.067V469.327H802.914V519.007H732.842V517.067ZM803.073 517.067V469.327H873.144V519.007H803.073V517.067ZM873.144 22.5921V70.8762H803.073V21.196H873.144V22.5921ZM802.914 22.5921V70.8762H732.842V21.196H802.914V22.5921ZM732.683 22.5921V70.8762H662.612V21.196H732.683V22.5921ZM662.453 22.5921V70.8762H592.381V21.196H662.453V22.5921ZM592.222 22.5921V70.8762H522.15V21.196H592.222V22.5921ZM521.992 22.5921V70.8762H451.92V21.196H521.992V22.5921ZM451.761 22.5921V70.8762H381.689V21.196H451.761V22.5921ZM381.531 22.5921V70.8762H311.459V21.196H381.531V22.5921ZM311.3 22.5921V70.8762H241.228V21.196H311.3V22.5921ZM241.07 22.5921V70.8762H170.998V21.196H241.07V22.5921ZM170.839 22.5921V70.8762H100.767V21.196H170.839V22.5921ZM100.608 22.5921V70.8762H30.5367V21.196H100.608V22.5921ZM30.3779 22.5921V70.8762H-39.6938V21.196H30.3779V22.5921ZM-39.8526 22.5921V70.8762H-109.924V21.196H-39.8526V22.5921ZM-110.083 22.5921V70.8762H-180.155V21.196H-110.083V22.5921ZM-180.314 22.5921V70.8762H-250.385V21.196H-180.314V22.5921ZM-250.385 567.404V519.12H-180.314V568.8H-250.385V567.404ZM-180.155 567.404V519.12H-110.083V568.8H-180.155V567.404ZM-109.924 567.404V519.12H-39.8526V568.8H-109.924V567.404ZM-39.6938 567.404V519.12H30.3779V568.8H-39.6938V567.404ZM30.5367 567.404V519.12H100.608V568.8H30.5367V567.404ZM100.767 567.404V519.12H170.839V568.8H100.767V567.404ZM170.998 567.404V519.12H241.07V568.8H170.998V567.404ZM241.228 567.404V519.12H311.3V568.8H241.228V567.404ZM311.459 567.404V519.12H381.531V568.8H311.459V567.404ZM381.689 567.404V519.12H451.761V568.8H381.689V567.404ZM451.92 567.404V519.12H521.992V568.8H451.92V567.404ZM522.15 567.404V519.12H592.222V568.8H522.15V567.404ZM592.381 567.404V519.12H662.453V568.8H592.381V567.404ZM662.612 567.404V519.12H732.683V568.8H662.612V567.404ZM732.842 567.404V519.12H802.914V568.8H732.842V567.404ZM803.073 567.404V519.12H873.144V568.8H803.073V567.404ZM873.303 567.404V519.12H943.375V568.8H873.303V567.404ZM943.375 -27.7448V21.0835H873.303V-28.5967H943.375V-27.7448ZM873.144 -27.7448V21.0835H803.073V-28.5967H873.144V-27.7448ZM802.914 -27.7448V21.0835H732.842V-28.5967H802.914V-27.7448ZM732.683 -27.7448V21.0835H662.612V-28.5967H732.683V-27.7448ZM662.453 -27.7448V21.0835H592.381V-28.5967H662.453V-27.7448ZM592.222 -27.7448V21.0835H522.15V-28.5967H592.222V-27.7448ZM521.992 -27.7448V21.0835H451.92V-28.5967H521.992V-27.7448ZM451.761 -27.7448V21.0835H381.689V-28.5967H451.761V-27.7448ZM381.531 -27.7448V21.0835H311.459V-28.5967H381.531V-27.7448ZM311.3 -27.7448V21.0835H241.228V-28.5967H311.3V-27.7448ZM241.07 -27.7448V21.0835H170.998V-28.5967H241.07V-27.7448ZM170.839 -27.7448V21.0835H100.767V-28.5967H170.839V-27.7448ZM100.608 -27.7448V21.0835H30.5367V-28.5967H100.608V-27.7448ZM30.3779 -27.7448V21.0835H-39.6938V-28.5967H30.3779V-27.7448ZM-39.8526 -27.7448V21.0835H-109.924V-28.5967H-39.8526V-27.7448ZM-110.083 -27.7448V21.0835H-180.155V-28.5967H-110.083V-27.7448ZM-180.314 -27.7448V21.0835H-250.385V-28.5967H-180.314V-27.7448ZM-250.544 -27.7448V21.0835H-320.616V-28.5967H-250.544V-27.7448ZM-320.616 617.737V568.909H-250.544V618.589H-320.616V617.737ZM-250.385 617.737V568.909H-180.314V618.589H-250.385V617.737ZM-180.155 617.737V568.909H-110.083V618.589H-180.155V617.737ZM-109.924 617.737V568.909H-39.8526V618.589H-109.924V617.737ZM-39.6938 617.737V568.909H30.3779V618.589H-39.6938V617.737ZM30.5367 617.737V568.909H100.608V618.589H30.5367V617.737ZM100.767 617.737V568.909H170.839V618.589H100.767V617.737ZM170.998 617.737V568.909H241.07V618.589H170.998V617.737ZM241.228 617.737V568.909H311.3V618.589H241.228V617.737ZM311.459 617.737V568.909H381.531V618.589H311.459V617.737ZM381.689 617.737V568.909H451.761V618.589H381.689V617.737ZM451.92 617.737V568.909H521.992V618.589H451.92V617.737ZM522.15 617.737V568.909H592.222V618.589H522.15V617.737ZM592.381 617.737V568.909H662.453V618.589H592.381V617.737ZM662.612 617.737V568.909H732.683V618.589H662.612V617.737ZM732.842 617.737V568.909H802.914V618.589H732.842V617.737ZM803.073 617.737V568.909H873.144V618.589H803.073V617.737ZM873.303 617.737V568.909H943.375V618.589H873.303V617.737ZM943.534 617.737V568.909H1013.61V618.589H943.534V617.737ZM945.715 -78.3932H1013.61V-28.7131H943.534V-78.3895H945.715V-78.3932ZM876.574 -78.3932H943.375V-28.7131H873.303V-78.3895H876.574V-78.3932ZM807.434 -78.3932H873.15V-28.7131H803.078V-78.3895H807.44L807.434 -78.3932ZM738.294 -78.3932H802.919V-28.7131H732.847V-78.3895H738.299L738.294 -78.3932ZM663.395 -78.3932H732.688V-28.7131H662.617V-78.3895H663.395V-78.3932ZM594.255 -78.3932H662.458V-28.7131H592.386V-78.3895H594.255V-78.3932ZM525.115 -78.3932H592.227V-28.7131H522.156V-78.3895H525.115V-78.3932ZM455.975 -78.3932H521.997V-28.7131H451.925V-78.3895H455.975V-78.3932ZM386.834 -78.3932H451.766V-28.7131H381.695V-78.3895H386.834V-78.3932ZM311.93 -78.3932H381.536V-28.7131H311.464V-78.3895H311.93V-78.3932ZM242.79 -78.3932H311.305V-28.7131H241.234V-78.3895H242.79V-78.3932ZM173.65 -78.3932H241.075V-28.7131H171.003V-78.3895H173.65V-78.3932ZM104.51 -78.3932H170.844V-28.7131H100.773V-78.3895H104.51V-78.3932ZM35.3694 -78.3932H100.614V-28.7131H30.542V-78.3895H35.3694V-78.3932ZM-39.5298 -78.3932H30.3885V-28.7131H-39.6832V-78.3895H-39.5298V-78.3932ZM-108.67 -78.3932H-39.842V-28.7131H-109.914V-78.3895H-108.67V-78.3932ZM-177.81 -78.3932H-110.073V-28.7131H-180.144V-78.3895H-177.81V-78.3932ZM-246.95 -78.3932H-180.303V-28.7131H-250.375V-78.3895H-246.95V-78.3932ZM-316.09 -78.3932H-250.534V-28.7131H-320.605V-78.3895H-316.09V-78.3932ZM-385.23 -78.3932H-320.764V-28.7131H-390.841V-78.3895H-385.236L-385.23 -78.3932ZM-321.849 668.382H-390.841V618.702H-320.769V668.382H-321.86H-321.849ZM-252.709 668.382H-320.6V618.702H-250.528V668.382H-252.709ZM-183.569 668.382H-250.375V618.702H-180.303V668.382H-183.574H-183.569ZM-114.429 668.382H-180.144V618.702H-110.073V668.382H-114.434H-114.429ZM-45.2888 668.382H-109.914V618.702H-39.842V668.382H-45.294H-45.2888ZM29.6104 668.382H-39.6832V618.702H30.3885V668.382H29.6104ZM98.7505 668.382H30.5473V618.702H100.619V668.382H98.7505ZM167.891 668.382H100.778V618.702H170.85V668.382H167.891ZM237.031 668.382H171.008V618.702H241.08V668.382H237.031ZM306.171 668.382H241.234V618.702H311.305V668.382H306.166H306.171ZM381.075 668.382H311.469V618.702H381.541V668.382H381.075ZM450.216 668.382H381.7V618.702H451.772V668.382H450.216ZM519.356 668.382H451.931V618.702H522.002V668.382H519.356ZM588.496 668.382H522.161V618.702H592.233V668.382H588.496ZM657.636 668.382H592.392V618.702H662.463V668.382H657.636ZM732.535 668.382H662.617V618.702H732.688V668.382H732.535ZM801.675 668.382H732.847V618.702H802.919V668.382H801.675ZM870.815 668.382H803.078V618.702H873.15V668.382H870.815ZM939.955 668.382H873.308V618.702H943.38V668.382H939.955ZM1009.1 668.382H943.539V618.702H1013.61V668.382H1009.1ZM1078.24 668.382H1013.77V618.702H1083.84V668.382H1078.24Z"/>
</mask>
<path d="M1083.99 -84H1083.83V-78.4983H1013.76V-84H1013.6V-78.4983H943.528V-84H943.37V-78.4983H873.298V-84H873.139V-78.4983H803.067V-84H802.908V-78.4983H732.837V-84H732.678V-78.4983H662.606V-84H662.448V-78.4983H592.376V-84H592.217V-78.4983H522.145V-84H521.986V-78.4983H451.915V-84H451.756V-78.4983H381.684V-84H381.525V-78.4983H311.454V-84H311.295V-78.4983H241.223V-84H241.064V-78.4983H170.992V-84H170.834V-78.4983H100.762V-84H100.603V-78.4983H30.5314V-84H30.3726V-78.4983H-39.6991V-84H-39.8579V-78.4983H-109.93V-84H-110.088V-78.4983H-180.16V-84H-180.319V-78.4983H-250.391V-84H-250.55V-78.4983H-320.621V-84H-320.78V-78.4983H-390.841V-84H-391V674H-390.841V668.498H-320.769V674H-320.611V668.498H-250.539V674H-250.38V668.498H-180.308V674H-180.15V668.498H-110.078V674H-109.919V668.498H-39.8473V674H-39.6885V668.498H30.3832V674H30.542V668.498H100.614V674H100.773V668.498H170.844V674H171.003V668.498H241.075V674H241.234V668.498H311.305V674H311.464V668.498H381.536V674H381.695V668.498H451.766V674H451.925V668.498H521.997V674H522.156V668.498H592.227V674H592.386V668.498H662.458V674H662.617V668.498H732.688V674H732.847V668.498H802.919V674H803.078V668.498H873.15V674H873.308V668.498H943.38V674H943.539V668.498H1013.61V674H1013.77V668.498H1083.84V674H1084V-84H1083.99ZM1014.85 -78.3895H1083.83V-28.7093H1013.76V-78.3895H1014.85ZM1083.83 -24.7838V21.0835H1013.76V-28.5967H1083.83V-24.7838ZM1083.83 25.5531V70.8762H1013.76V21.196H1083.83V25.5531ZM1083.83 75.89V120.669H1013.76V70.9888H1083.83V75.89ZM1083.83 126.227V170.462H1013.76V120.782H1083.83V126.227ZM1083.83 173.603V220.258H1013.76V170.578H1083.83V173.607V173.603ZM1083.83 223.94V270.051H1013.76V220.371H1083.83V223.94ZM1083.83 274.277V319.844H1013.76V270.164H1083.83V274.277ZM1083.83 324.614V369.637H1013.76V319.956H1083.83V324.614ZM1083.83 374.951V419.429H1013.76V369.749H1083.83V374.951ZM1083.83 425.288V469.226H1013.76V419.546H1083.83V425.291V425.288ZM1083.83 472.664V519.019H1013.76V469.338H1083.83V472.664ZM1083.83 523V568.811H1013.76V519.131H1083.83V523ZM1083.83 573.337V618.604H1013.76V568.924H1083.83V573.337ZM-390.841 614.78V568.913H-320.769V618.593H-390.841V614.78ZM-390.841 564.443V519.12H-320.769V568.8H-390.841V564.443ZM-390.841 514.106V469.327H-320.769V519.007H-390.841V514.106ZM-390.841 463.769V419.534H-320.769V469.215H-390.841V463.769ZM-390.841 416.393V369.738H-320.769V419.418H-390.841V416.39V416.393ZM-390.841 366.056V319.945H-320.769V369.625H-390.841V366.056ZM-390.841 315.719V270.152H-320.769V319.833H-390.841V315.719ZM-390.841 265.383V220.36H-320.769V270.04H-390.841V265.383ZM-390.841 215.046V170.567H-320.769V220.247H-390.841V215.046ZM-390.841 164.709V120.77H-320.769V170.451H-390.841V164.705V164.709ZM-390.841 117.333V70.9776H-320.769V120.658H-390.841V117.333ZM-390.841 66.9958V21.1848H-320.769V70.865H-390.841V66.9958ZM-390.841 16.6589V-28.608H-320.769V21.0722H-390.841V16.6589ZM1013.61 -24.7951V21.0722H943.534V-28.608H1013.61V-24.7951ZM1013.61 25.5418V70.865H943.534V21.1848H1013.61V25.5418ZM1013.61 75.8788V120.658H943.534V70.9776H1013.61V75.8788ZM1013.61 126.216V170.451H943.534V120.77H1013.61V126.216ZM1013.61 173.592V220.247H943.534V170.567H1013.61V173.595V173.592ZM1013.61 223.929V270.04H943.534V220.36H1013.61V223.929ZM1013.61 274.266V319.833H943.534V270.152H1013.61V274.266ZM1013.61 324.602V369.625H943.534V319.945H1013.61V324.602ZM1013.61 374.939V419.418H943.534V369.738H1013.61V374.939ZM1013.61 425.276V469.215H943.534V419.534H1013.61V425.28V425.276ZM1013.61 472.652V519.007H943.534V469.327H1013.61V472.652ZM1013.61 522.989V568.8H943.534V519.12H1013.61V522.989ZM-320.611 564.443V519.12H-250.539V568.8H-320.611V564.443ZM-320.611 514.106V469.327H-250.539V519.007H-320.611V514.106ZM-320.611 463.769V419.534H-250.539V469.215H-320.611V463.769ZM-320.611 416.393V369.738H-250.539V419.418H-320.611V416.39V416.393ZM-320.611 366.056V319.945H-250.539V369.625H-320.611V366.056ZM-320.611 315.719V270.152H-250.539V319.833H-320.611V315.719ZM-320.611 265.383V220.36H-250.539V270.04H-320.611V265.383ZM-320.611 215.046V170.567H-250.539V220.247H-320.611V215.046ZM-320.611 164.709V120.77H-250.539V170.451H-320.611V164.705V164.709ZM-320.611 117.333V70.9776H-250.539V120.658H-320.611V117.333ZM-320.611 66.9958V21.1848H-250.539V70.865H-320.611V66.9958ZM943.375 25.5418V70.865H873.303V21.1848H943.375V25.5418ZM943.375 75.8788V120.658H873.303V70.9776H943.375V75.8788ZM943.375 126.216V170.451H873.303V120.77H943.375V126.216ZM943.375 173.592V220.247H873.303V170.567H943.375V173.595V173.592ZM943.375 223.929V270.04H873.303V220.36H943.375V223.929ZM943.375 274.266V319.833H873.303V270.152H943.375V274.266ZM943.375 324.602V369.625H873.303V319.945H943.375V324.602ZM943.375 374.939V419.418H873.303V369.738H943.375V374.939ZM943.375 425.276V469.215H873.303V419.534H943.375V425.28V425.276ZM943.375 472.652V519.007H873.303V469.327H943.375V472.652ZM-250.38 514.106V469.327H-180.308V519.007H-250.38V514.106ZM-250.38 463.769V419.534H-180.308V469.215H-250.38V463.769ZM-250.38 416.393V369.738H-180.308V419.418H-250.38V416.39V416.393ZM-250.38 366.056V319.945H-180.308V369.625H-250.38V366.056ZM-250.38 315.719V270.152H-180.308V319.833H-250.38V315.719ZM-250.38 265.383V220.36H-180.308V270.04H-250.38V265.383ZM-250.38 215.046V170.567H-180.308V220.247H-250.38V215.046ZM-250.38 164.709V120.77H-180.308V170.451H-250.38V164.705V164.709ZM-250.38 117.333V70.9776H-180.308V120.658H-250.38V117.333ZM873.144 75.8788V120.658H803.073V70.9776H873.144V75.8788ZM873.144 126.216V170.451H803.073V120.77H873.144V126.216ZM873.144 173.592V220.247H803.073V170.567H873.144V173.595V173.592ZM873.144 223.929V270.04H803.073V220.36H873.144V223.929ZM873.144 274.266V319.833H803.073V270.152H873.144V274.266ZM873.144 324.602V369.625H803.073V319.945H873.144V324.602ZM873.144 374.939V419.418H803.073V369.738H873.144V374.939ZM873.144 425.276V469.215H803.073V419.534H873.144V425.28V425.276ZM-180.15 463.769V419.534H-110.078V469.215H-180.15V463.769ZM-180.15 416.393V369.738H-110.078V419.418H-180.15V416.39V416.393ZM-180.15 366.056V319.945H-110.078V369.625H-180.15V366.056ZM-180.15 315.719V270.152H-110.078V319.833H-180.15V315.719ZM-180.15 265.383V220.36H-110.078V270.04H-180.15V265.383ZM-180.15 215.046V170.567H-110.078V220.247H-180.15V215.046ZM-180.15 164.709V120.77H-110.078V170.451H-180.15V164.705V164.709ZM802.914 126.216V170.451H732.842V120.77H802.914V126.216ZM802.914 173.592V220.247H732.842V170.567H802.914V173.595V173.592ZM802.914 223.929V270.04H732.842V220.36H802.914V223.929ZM802.914 274.266V319.833H732.842V270.152H802.914V274.266ZM802.914 324.602V369.625H732.842V319.945H802.914V324.602ZM802.914 374.939V419.418H732.842V369.738H802.914V374.939ZM-109.919 416.393V369.738H-39.8473V419.418H-109.919V416.39V416.393ZM-109.919 366.056V319.945H-39.8473V369.625H-109.919V366.056ZM-109.919 315.719V270.152H-39.8473V319.833H-109.919V315.719ZM-109.919 265.383V220.36H-39.8473V270.04H-109.919V265.383ZM-109.919 215.046V170.567H-39.8473V220.247H-109.919V215.046ZM732.683 173.592V220.247H662.612V170.567H732.683V173.595V173.592ZM732.683 223.929V270.04H662.612V220.36H732.683V223.929ZM732.683 274.266V319.833H662.612V270.152H732.683V274.266ZM732.683 324.602V369.625H662.612V319.945H732.683V324.602ZM-39.6885 366.056V319.945H30.3832V369.625H-39.6885V366.056ZM-39.6885 315.719V270.152H30.3832V319.833H-39.6885V315.719ZM-39.6885 265.383V220.36H30.3832V270.04H-39.6885V265.383ZM662.453 223.929V270.04H592.381V220.36H662.453V223.929ZM662.453 274.266V319.833H592.381V270.152H662.453V274.266ZM30.5367 315.719V270.152H100.608V319.833H30.5367V315.719ZM100.767 318.68V270.152H170.839V319.833H100.767V318.68ZM170.998 318.68V270.152H241.07V319.833H170.998V318.68ZM241.228 318.68V270.152H311.3V319.833H241.228V318.68ZM311.459 318.68V270.152H381.531V319.833H311.459V318.68ZM381.689 318.68V270.152H451.761V319.833H381.689V318.68ZM451.92 318.68V270.152H521.992V319.833H451.92V318.68ZM522.15 318.68V270.152H592.222V319.833H522.15V318.68ZM592.222 220.971V270.044H522.15V220.363H592.222V220.971ZM521.992 220.971V270.044H451.92V220.363H521.992V220.971ZM451.761 220.971V270.044H381.689V220.363H451.761V220.971ZM381.531 220.971V270.044H311.459V220.363H381.531V220.971ZM311.3 220.971V270.044H241.228V220.363H311.3V220.971ZM241.07 220.971V270.044H170.998V220.363H241.07V220.971ZM170.839 220.971V270.044H100.767V220.363H170.839V220.971ZM100.608 220.971V270.044H30.5367V220.363H100.608V220.971ZM30.5367 369.017V319.945H100.608V369.625H30.5367V369.017ZM100.767 369.017V319.945H170.839V369.625H100.767V369.017ZM170.998 369.017V319.945H241.07V369.625H170.998V369.017ZM241.228 369.017V319.945H311.3V369.625H241.228V369.017ZM311.459 369.017V319.945H381.531V369.625H311.459V369.017ZM381.689 369.017V319.945H451.761V369.625H381.689V369.017ZM451.92 369.017V319.945H521.992V369.625H451.92V369.017ZM522.15 369.017V319.945H592.222V369.625H522.15V369.017ZM592.381 369.017V319.945H662.453V369.625H592.381V369.017ZM662.453 170.634V220.251H592.381V170.571H662.453V170.638V170.634ZM592.222 170.634V220.251H522.15V170.571H592.222V170.638V170.634ZM521.992 170.634V220.251H451.92V170.571H521.992V170.638V170.634ZM451.761 170.634V220.251H381.689V170.571H451.761V170.638V170.634ZM381.531 170.634V220.251H311.459V170.571H381.531V170.638V170.634ZM311.3 170.634V220.251H241.228V170.571H311.3V170.638V170.634ZM241.07 170.634V220.251H170.998V170.571H241.07V170.638V170.634ZM170.839 170.634V220.251H100.767V170.571H170.839V170.638V170.634ZM100.608 170.634V220.251H30.5367V170.571H100.608V170.638V170.634ZM30.3779 170.634V220.251H-39.6938V170.571H30.3779V170.638V170.634ZM-39.6938 419.354V369.738H30.3779V419.418H-39.6938V419.351V419.354ZM30.5367 419.354V369.738H100.608V419.418H30.5367V419.351V419.354ZM100.767 419.354V369.738H170.839V419.418H100.767V419.351V419.354ZM170.998 419.354V369.738H241.07V419.418H170.998V419.351V419.354ZM241.228 419.354V369.738H311.3V419.418H241.228V419.351V419.354ZM311.459 419.354V369.738H381.531V419.418H311.459V419.351V419.354ZM381.689 419.354V369.738H451.761V419.418H381.689V419.351V419.354ZM451.92 419.354V369.738H521.992V419.418H451.92V419.351V419.354ZM522.15 419.354V369.738H592.222V419.418H522.15V419.351V419.354ZM592.381 419.354V369.738H662.453V419.418H592.381V419.351V419.354ZM662.612 419.354V369.738H732.683V419.418H662.612V419.351V419.354ZM732.683 123.262V170.458H662.612V120.778H732.683V123.262ZM662.453 123.262V170.458H592.381V120.778H662.453V123.262ZM592.222 123.262V170.458H522.15V120.778H592.222V123.262ZM521.992 123.262V170.458H451.92V120.778H521.992V123.262ZM451.761 123.262V170.458H381.689V120.778H451.761V123.262ZM381.531 123.262V170.458H311.459V120.778H381.531V123.262ZM311.3 123.262V170.458H241.228V120.778H311.3V123.262ZM241.07 123.262V170.458H170.998V120.778H241.07V123.262ZM170.839 123.262V170.458H100.767V120.778H170.839V123.262ZM100.608 123.262V170.458H30.5367V120.778H100.608V123.262ZM30.3779 123.262V170.458H-39.6938V120.778H30.3779V123.262ZM-39.8526 123.262V170.458H-109.924V120.778H-39.8526V123.262ZM-109.924 466.73V419.534H-39.8526V469.215H-109.924V466.73ZM-39.6938 466.73V419.534H30.3779V469.215H-39.6938V466.73ZM30.5367 466.73V419.534H100.608V469.215H30.5367V466.73ZM100.767 466.73V419.534H170.839V469.215H100.767V466.73ZM170.998 466.73V419.534H241.07V469.215H170.998V466.73ZM241.228 466.73V419.534H311.3V469.215H241.228V466.73ZM311.459 466.73V419.534H381.531V469.215H311.459V466.73ZM381.689 466.73V419.534H451.761V469.215H381.689V466.73ZM451.92 466.73V419.534H521.992V469.215H451.92V466.73ZM522.15 466.73V419.534H592.222V469.215H522.15V466.73ZM592.381 466.73V419.534H662.453V469.215H592.381V466.73ZM662.612 466.73V419.534H732.683V469.215H662.612V466.73ZM732.842 466.73V419.534H802.914V469.215H732.842V466.73ZM802.914 72.9253V120.665H732.842V70.9851H802.914V72.9253ZM732.683 72.9253V120.665H662.612V70.9851H732.683V72.9253ZM662.453 72.9253V120.665H592.381V70.9851H662.453V72.9253ZM592.222 72.9253V120.665H522.15V70.9851H592.222V72.9253ZM521.992 72.9253V120.665H451.92V70.9851H521.992V72.9253ZM451.761 72.9253V120.665H381.689V70.9851H451.761V72.9253ZM381.531 72.9253V120.665H311.459V70.9851H381.531V72.9253ZM311.3 72.9253V120.665H241.228V70.9851H311.3V72.9253ZM241.07 72.9253V120.665H170.998V70.9851H241.07V72.9253ZM170.839 72.9253V120.665H100.767V70.9851H170.839V72.9253ZM100.608 72.9253V120.665H30.5367V70.9851H100.608V72.9253ZM30.3779 72.9253V120.665H-39.6938V70.9851H30.3779V72.9253ZM-39.8526 72.9253V120.665H-109.924V70.9851H-39.8526V72.9253ZM-110.083 72.9253V120.665H-180.155V70.9851H-110.083V72.9253ZM-180.155 517.067V469.327H-110.083V519.007H-180.155V517.067ZM-109.924 517.067V469.327H-39.8526V519.007H-109.924V517.067ZM-39.6938 517.067V469.327H30.3779V519.007H-39.6938V517.067ZM30.5367 517.067V469.327H100.608V519.007H30.5367V517.067ZM100.767 517.067V469.327H170.839V519.007H100.767V517.067ZM170.998 517.067V469.327H241.07V519.007H170.998V517.067ZM241.228 517.067V469.327H311.3V519.007H241.228V517.067ZM311.459 517.067V469.327H381.531V519.007H311.459V517.067ZM381.689 517.067V469.327H451.761V519.007H381.689V517.067ZM451.92 517.067V469.327H521.992V519.007H451.92V517.067ZM522.15 517.067V469.327H592.222V519.007H522.15V517.067ZM592.381 517.067V469.327H662.453V519.007H592.381V517.067ZM662.612 517.067V469.327H732.683V519.007H662.612V517.067ZM732.842 517.067V469.327H802.914V519.007H732.842V517.067ZM803.073 517.067V469.327H873.144V519.007H803.073V517.067ZM873.144 22.5921V70.8762H803.073V21.196H873.144V22.5921ZM802.914 22.5921V70.8762H732.842V21.196H802.914V22.5921ZM732.683 22.5921V70.8762H662.612V21.196H732.683V22.5921ZM662.453 22.5921V70.8762H592.381V21.196H662.453V22.5921ZM592.222 22.5921V70.8762H522.15V21.196H592.222V22.5921ZM521.992 22.5921V70.8762H451.92V21.196H521.992V22.5921ZM451.761 22.5921V70.8762H381.689V21.196H451.761V22.5921ZM381.531 22.5921V70.8762H311.459V21.196H381.531V22.5921ZM311.3 22.5921V70.8762H241.228V21.196H311.3V22.5921ZM241.07 22.5921V70.8762H170.998V21.196H241.07V22.5921ZM170.839 22.5921V70.8762H100.767V21.196H170.839V22.5921ZM100.608 22.5921V70.8762H30.5367V21.196H100.608V22.5921ZM30.3779 22.5921V70.8762H-39.6938V21.196H30.3779V22.5921ZM-39.8526 22.5921V70.8762H-109.924V21.196H-39.8526V22.5921ZM-110.083 22.5921V70.8762H-180.155V21.196H-110.083V22.5921ZM-180.314 22.5921V70.8762H-250.385V21.196H-180.314V22.5921ZM-250.385 567.404V519.12H-180.314V568.8H-250.385V567.404ZM-180.155 567.404V519.12H-110.083V568.8H-180.155V567.404ZM-109.924 567.404V519.12H-39.8526V568.8H-109.924V567.404ZM-39.6938 567.404V519.12H30.3779V568.8H-39.6938V567.404ZM30.5367 567.404V519.12H100.608V568.8H30.5367V567.404ZM100.767 567.404V519.12H170.839V568.8H100.767V567.404ZM170.998 567.404V519.12H241.07V568.8H170.998V567.404ZM241.228 567.404V519.12H311.3V568.8H241.228V567.404ZM311.459 567.404V519.12H381.531V568.8H311.459V567.404ZM381.689 567.404V519.12H451.761V568.8H381.689V567.404ZM451.92 567.404V519.12H521.992V568.8H451.92V567.404ZM522.15 567.404V519.12H592.222V568.8H522.15V567.404ZM592.381 567.404V519.12H662.453V568.8H592.381V567.404ZM662.612 567.404V519.12H732.683V568.8H662.612V567.404ZM732.842 567.404V519.12H802.914V568.8H732.842V567.404ZM803.073 567.404V519.12H873.144V568.8H803.073V567.404ZM873.303 567.404V519.12H943.375V568.8H873.303V567.404ZM943.375 -27.7448V21.0835H873.303V-28.5967H943.375V-27.7448ZM873.144 -27.7448V21.0835H803.073V-28.5967H873.144V-27.7448ZM802.914 -27.7448V21.0835H732.842V-28.5967H802.914V-27.7448ZM732.683 -27.7448V21.0835H662.612V-28.5967H732.683V-27.7448ZM662.453 -27.7448V21.0835H592.381V-28.5967H662.453V-27.7448ZM592.222 -27.7448V21.0835H522.15V-28.5967H592.222V-27.7448ZM521.992 -27.7448V21.0835H451.92V-28.5967H521.992V-27.7448ZM451.761 -27.7448V21.0835H381.689V-28.5967H451.761V-27.7448ZM381.531 -27.7448V21.0835H311.459V-28.5967H381.531V-27.7448ZM311.3 -27.7448V21.0835H241.228V-28.5967H311.3V-27.7448ZM241.07 -27.7448V21.0835H170.998V-28.5967H241.07V-27.7448ZM170.839 -27.7448V21.0835H100.767V-28.5967H170.839V-27.7448ZM100.608 -27.7448V21.0835H30.5367V-28.5967H100.608V-27.7448ZM30.3779 -27.7448V21.0835H-39.6938V-28.5967H30.3779V-27.7448ZM-39.8526 -27.7448V21.0835H-109.924V-28.5967H-39.8526V-27.7448ZM-110.083 -27.7448V21.0835H-180.155V-28.5967H-110.083V-27.7448ZM-180.314 -27.7448V21.0835H-250.385V-28.5967H-180.314V-27.7448ZM-250.544 -27.7448V21.0835H-320.616V-28.5967H-250.544V-27.7448ZM-320.616 617.737V568.909H-250.544V618.589H-320.616V617.737ZM-250.385 617.737V568.909H-180.314V618.589H-250.385V617.737ZM-180.155 617.737V568.909H-110.083V618.589H-180.155V617.737ZM-109.924 617.737V568.909H-39.8526V618.589H-109.924V617.737ZM-39.6938 617.737V568.909H30.3779V618.589H-39.6938V617.737ZM30.5367 617.737V568.909H100.608V618.589H30.5367V617.737ZM100.767 617.737V568.909H170.839V618.589H100.767V617.737ZM170.998 617.737V568.909H241.07V618.589H170.998V617.737ZM241.228 617.737V568.909H311.3V618.589H241.228V617.737ZM311.459 617.737V568.909H381.531V618.589H311.459V617.737ZM381.689 617.737V568.909H451.761V618.589H381.689V617.737ZM451.92 617.737V568.909H521.992V618.589H451.92V617.737ZM522.15 617.737V568.909H592.222V618.589H522.15V617.737ZM592.381 617.737V568.909H662.453V618.589H592.381V617.737ZM662.612 617.737V568.909H732.683V618.589H662.612V617.737ZM732.842 617.737V568.909H802.914V618.589H732.842V617.737ZM803.073 617.737V568.909H873.144V618.589H803.073V617.737ZM873.303 617.737V568.909H943.375V618.589H873.303V617.737ZM943.534 617.737V568.909H1013.61V618.589H943.534V617.737ZM945.715 -78.3932H1013.61V-28.7131H943.534V-78.3895H945.715V-78.3932ZM876.574 -78.3932H943.375V-28.7131H873.303V-78.3895H876.574V-78.3932ZM807.434 -78.3932H873.15V-28.7131H803.078V-78.3895H807.44L807.434 -78.3932ZM738.294 -78.3932H802.919V-28.7131H732.847V-78.3895H738.299L738.294 -78.3932ZM663.395 -78.3932H732.688V-28.7131H662.617V-78.3895H663.395V-78.3932ZM594.255 -78.3932H662.458V-28.7131H592.386V-78.3895H594.255V-78.3932ZM525.115 -78.3932H592.227V-28.7131H522.156V-78.3895H525.115V-78.3932ZM455.975 -78.3932H521.997V-28.7131H451.925V-78.3895H455.975V-78.3932ZM386.834 -78.3932H451.766V-28.7131H381.695V-78.3895H386.834V-78.3932ZM311.93 -78.3932H381.536V-28.7131H311.464V-78.3895H311.93V-78.3932ZM242.79 -78.3932H311.305V-28.7131H241.234V-78.3895H242.79V-78.3932ZM173.65 -78.3932H241.075V-28.7131H171.003V-78.3895H173.65V-78.3932ZM104.51 -78.3932H170.844V-28.7131H100.773V-78.3895H104.51V-78.3932ZM35.3694 -78.3932H100.614V-28.7131H30.542V-78.3895H35.3694V-78.3932ZM-39.5298 -78.3932H30.3885V-28.7131H-39.6832V-78.3895H-39.5298V-78.3932ZM-108.67 -78.3932H-39.842V-28.7131H-109.914V-78.3895H-108.67V-78.3932ZM-177.81 -78.3932H-110.073V-28.7131H-180.144V-78.3895H-177.81V-78.3932ZM-246.95 -78.3932H-180.303V-28.7131H-250.375V-78.3895H-246.95V-78.3932ZM-316.09 -78.3932H-250.534V-28.7131H-320.605V-78.3895H-316.09V-78.3932ZM-385.23 -78.3932H-320.764V-28.7131H-390.841V-78.3895H-385.236L-385.23 -78.3932ZM-321.849 668.382H-390.841V618.702H-320.769V668.382H-321.86H-321.849ZM-252.709 668.382H-320.6V618.702H-250.528V668.382H-252.709ZM-183.569 668.382H-250.375V618.702H-180.303V668.382H-183.574H-183.569ZM-114.429 668.382H-180.144V618.702H-110.073V668.382H-114.434H-114.429ZM-45.2888 668.382H-109.914V618.702H-39.842V668.382H-45.294H-45.2888ZM29.6104 668.382H-39.6832V618.702H30.3885V668.382H29.6104ZM98.7505 668.382H30.5473V618.702H100.619V668.382H98.7505ZM167.891 668.382H100.778V618.702H170.85V668.382H167.891ZM237.031 668.382H171.008V618.702H241.08V668.382H237.031ZM306.171 668.382H241.234V618.702H311.305V668.382H306.166H306.171ZM381.075 668.382H311.469V618.702H381.541V668.382H381.075ZM450.216 668.382H381.7V618.702H451.772V668.382H450.216ZM519.356 668.382H451.931V618.702H522.002V668.382H519.356ZM588.496 668.382H522.161V618.702H592.233V668.382H588.496ZM657.636 668.382H592.392V618.702H662.463V668.382H657.636ZM732.535 668.382H662.617V618.702H732.688V668.382H732.535ZM801.675 668.382H732.847V618.702H802.919V668.382H801.675ZM870.815 668.382H803.078V618.702H873.15V668.382H870.815ZM939.955 668.382H873.308V618.702H943.38V668.382H939.955ZM1009.1 668.382H943.539V618.702H1013.61V668.382H1009.1ZM1078.24 668.382H1013.77V618.702H1083.84V668.382H1078.24Z" fill="url(#paint0_radial_134_1295)"/>
<path d="M1083.99 -84H1083.83V-78.4983H1013.76V-84H1013.6V-78.4983H943.528V-84H943.37V-78.4983H873.298V-84H873.139V-78.4983H803.067V-84H802.908V-78.4983H732.837V-84H732.678V-78.4983H662.606V-84H662.448V-78.4983H592.376V-84H592.217V-78.4983H522.145V-84H521.986V-78.4983H451.915V-84H451.756V-78.4983H381.684V-84H381.525V-78.4983H311.454V-84H311.295V-78.4983H241.223V-84H241.064V-78.4983H170.992V-84H170.834V-78.4983H100.762V-84H100.603V-78.4983H30.5314V-84H30.3726V-78.4983H-39.6991V-84H-39.8579V-78.4983H-109.93V-84H-110.088V-78.4983H-180.16V-84H-180.319V-78.4983H-250.391V-84H-250.55V-78.4983H-320.621V-84H-320.78V-78.4983H-390.841V-84H-391V674H-390.841V668.498H-320.769V674H-320.611V668.498H-250.539V674H-250.38V668.498H-180.308V674H-180.15V668.498H-110.078V674H-109.919V668.498H-39.8473V674H-39.6885V668.498H30.3832V674H30.542V668.498H100.614V674H100.773V668.498H170.844V674H171.003V668.498H241.075V674H241.234V668.498H311.305V674H311.464V668.498H381.536V674H381.695V668.498H451.766V674H451.925V668.498H521.997V674H522.156V668.498H592.227V674H592.386V668.498H662.458V674H662.617V668.498H732.688V674H732.847V668.498H802.919V674H803.078V668.498H873.15V674H873.308V668.498H943.38V674H943.539V668.498H1013.61V674H1013.77V668.498H1083.84V674H1084V-84H1083.99ZM1014.85 -78.3895H1083.83V-28.7093H1013.76V-78.3895H1014.85ZM1083.83 -24.7838V21.0835H1013.76V-28.5967H1083.83V-24.7838ZM1083.83 25.5531V70.8762H1013.76V21.196H1083.83V25.5531ZM1083.83 75.89V120.669H1013.76V70.9888H1083.83V75.89ZM1083.83 126.227V170.462H1013.76V120.782H1083.83V126.227ZM1083.83 173.603V220.258H1013.76V170.578H1083.83V173.607V173.603ZM1083.83 223.94V270.051H1013.76V220.371H1083.83V223.94ZM1083.83 274.277V319.844H1013.76V270.164H1083.83V274.277ZM1083.83 324.614V369.637H1013.76V319.956H1083.83V324.614ZM1083.83 374.951V419.429H1013.76V369.749H1083.83V374.951ZM1083.83 425.288V469.226H1013.76V419.546H1083.83V425.291V425.288ZM1083.83 472.664V519.019H1013.76V469.338H1083.83V472.664ZM1083.83 523V568.811H1013.76V519.131H1083.83V523ZM1083.83 573.337V618.604H1013.76V568.924H1083.83V573.337ZM-390.841 614.78V568.913H-320.769V618.593H-390.841V614.78ZM-390.841 564.443V519.12H-320.769V568.8H-390.841V564.443ZM-390.841 514.106V469.327H-320.769V519.007H-390.841V514.106ZM-390.841 463.769V419.534H-320.769V469.215H-390.841V463.769ZM-390.841 416.393V369.738H-320.769V419.418H-390.841V416.39V416.393ZM-390.841 366.056V319.945H-320.769V369.625H-390.841V366.056ZM-390.841 315.719V270.152H-320.769V319.833H-390.841V315.719ZM-390.841 265.383V220.36H-320.769V270.04H-390.841V265.383ZM-390.841 215.046V170.567H-320.769V220.247H-390.841V215.046ZM-390.841 164.709V120.77H-320.769V170.451H-390.841V164.705V164.709ZM-390.841 117.333V70.9776H-320.769V120.658H-390.841V117.333ZM-390.841 66.9958V21.1848H-320.769V70.865H-390.841V66.9958ZM-390.841 16.6589V-28.608H-320.769V21.0722H-390.841V16.6589ZM1013.61 -24.7951V21.0722H943.534V-28.608H1013.61V-24.7951ZM1013.61 25.5418V70.865H943.534V21.1848H1013.61V25.5418ZM1013.61 75.8788V120.658H943.534V70.9776H1013.61V75.8788ZM1013.61 126.216V170.451H943.534V120.77H1013.61V126.216ZM1013.61 173.592V220.247H943.534V170.567H1013.61V173.595V173.592ZM1013.61 223.929V270.04H943.534V220.36H1013.61V223.929ZM1013.61 274.266V319.833H943.534V270.152H1013.61V274.266ZM1013.61 324.602V369.625H943.534V319.945H1013.61V324.602ZM1013.61 374.939V419.418H943.534V369.738H1013.61V374.939ZM1013.61 425.276V469.215H943.534V419.534H1013.61V425.28V425.276ZM1013.61 472.652V519.007H943.534V469.327H1013.61V472.652ZM1013.61 522.989V568.8H943.534V519.12H1013.61V522.989ZM-320.611 564.443V519.12H-250.539V568.8H-320.611V564.443ZM-320.611 514.106V469.327H-250.539V519.007H-320.611V514.106ZM-320.611 463.769V419.534H-250.539V469.215H-320.611V463.769ZM-320.611 416.393V369.738H-250.539V419.418H-320.611V416.39V416.393ZM-320.611 366.056V319.945H-250.539V369.625H-320.611V366.056ZM-320.611 315.719V270.152H-250.539V319.833H-320.611V315.719ZM-320.611 265.383V220.36H-250.539V270.04H-320.611V265.383ZM-320.611 215.046V170.567H-250.539V220.247H-320.611V215.046ZM-320.611 164.709V120.77H-250.539V170.451H-320.611V164.705V164.709ZM-320.611 117.333V70.9776H-250.539V120.658H-320.611V117.333ZM-320.611 66.9958V21.1848H-250.539V70.865H-320.611V66.9958ZM943.375 25.5418V70.865H873.303V21.1848H943.375V25.5418ZM943.375 75.8788V120.658H873.303V70.9776H943.375V75.8788ZM943.375 126.216V170.451H873.303V120.77H943.375V126.216ZM943.375 173.592V220.247H873.303V170.567H943.375V173.595V173.592ZM943.375 223.929V270.04H873.303V220.36H943.375V223.929ZM943.375 274.266V319.833H873.303V270.152H943.375V274.266ZM943.375 324.602V369.625H873.303V319.945H943.375V324.602ZM943.375 374.939V419.418H873.303V369.738H943.375V374.939ZM943.375 425.276V469.215H873.303V419.534H943.375V425.28V425.276ZM943.375 472.652V519.007H873.303V469.327H943.375V472.652ZM-250.38 514.106V469.327H-180.308V519.007H-250.38V514.106ZM-250.38 463.769V419.534H-180.308V469.215H-250.38V463.769ZM-250.38 416.393V369.738H-180.308V419.418H-250.38V416.39V416.393ZM-250.38 366.056V319.945H-180.308V369.625H-250.38V366.056ZM-250.38 315.719V270.152H-180.308V319.833H-250.38V315.719ZM-250.38 265.383V220.36H-180.308V270.04H-250.38V265.383ZM-250.38 215.046V170.567H-180.308V220.247H-250.38V215.046ZM-250.38 164.709V120.77H-180.308V170.451H-250.38V164.705V164.709ZM-250.38 117.333V70.9776H-180.308V120.658H-250.38V117.333ZM873.144 75.8788V120.658H803.073V70.9776H873.144V75.8788ZM873.144 126.216V170.451H803.073V120.77H873.144V126.216ZM873.144 173.592V220.247H803.073V170.567H873.144V173.595V173.592ZM873.144 223.929V270.04H803.073V220.36H873.144V223.929ZM873.144 274.266V319.833H803.073V270.152H873.144V274.266ZM873.144 324.602V369.625H803.073V319.945H873.144V324.602ZM873.144 374.939V419.418H803.073V369.738H873.144V374.939ZM873.144 425.276V469.215H803.073V419.534H873.144V425.28V425.276ZM-180.15 463.769V419.534H-110.078V469.215H-180.15V463.769ZM-180.15 416.393V369.738H-110.078V419.418H-180.15V416.39V416.393ZM-180.15 366.056V319.945H-110.078V369.625H-180.15V366.056ZM-180.15 315.719V270.152H-110.078V319.833H-180.15V315.719ZM-180.15 265.383V220.36H-110.078V270.04H-180.15V265.383ZM-180.15 215.046V170.567H-110.078V220.247H-180.15V215.046ZM-180.15 164.709V120.77H-110.078V170.451H-180.15V164.705V164.709ZM802.914 126.216V170.451H732.842V120.77H802.914V126.216ZM802.914 173.592V220.247H732.842V170.567H802.914V173.595V173.592ZM802.914 223.929V270.04H732.842V220.36H802.914V223.929ZM802.914 274.266V319.833H732.842V270.152H802.914V274.266ZM802.914 324.602V369.625H732.842V319.945H802.914V324.602ZM802.914 374.939V419.418H732.842V369.738H802.914V374.939ZM-109.919 416.393V369.738H-39.8473V419.418H-109.919V416.39V416.393ZM-109.919 366.056V319.945H-39.8473V369.625H-109.919V366.056ZM-109.919 315.719V270.152H-39.8473V319.833H-109.919V315.719ZM-109.919 265.383V220.36H-39.8473V270.04H-109.919V265.383ZM-109.919 215.046V170.567H-39.8473V220.247H-109.919V215.046ZM732.683 173.592V220.247H662.612V170.567H732.683V173.595V173.592ZM732.683 223.929V270.04H662.612V220.36H732.683V223.929ZM732.683 274.266V319.833H662.612V270.152H732.683V274.266ZM732.683 324.602V369.625H662.612V319.945H732.683V324.602ZM-39.6885 366.056V319.945H30.3832V369.625H-39.6885V366.056ZM-39.6885 315.719V270.152H30.3832V319.833H-39.6885V315.719ZM-39.6885 265.383V220.36H30.3832V270.04H-39.6885V265.383ZM662.453 223.929V270.04H592.381V220.36H662.453V223.929ZM662.453 274.266V319.833H592.381V270.152H662.453V274.266ZM30.5367 315.719V270.152H100.608V319.833H30.5367V315.719ZM100.767 318.68V270.152H170.839V319.833H100.767V318.68ZM170.998 318.68V270.152H241.07V319.833H170.998V318.68ZM241.228 318.68V270.152H311.3V319.833H241.228V318.68ZM311.459 318.68V270.152H381.531V319.833H311.459V318.68ZM381.689 318.68V270.152H451.761V319.833H381.689V318.68ZM451.92 318.68V270.152H521.992V319.833H451.92V318.68ZM522.15 318.68V270.152H592.222V319.833H522.15V318.68ZM592.222 220.971V270.044H522.15V220.363H592.222V220.971ZM521.992 220.971V270.044H451.92V220.363H521.992V220.971ZM451.761 220.971V270.044H381.689V220.363H451.761V220.971ZM381.531 220.971V270.044H311.459V220.363H381.531V220.971ZM311.3 220.971V270.044H241.228V220.363H311.3V220.971ZM241.07 220.971V270.044H170.998V220.363H241.07V220.971ZM170.839 220.971V270.044H100.767V220.363H170.839V220.971ZM100.608 220.971V270.044H30.5367V220.363H100.608V220.971ZM30.5367 369.017V319.945H100.608V369.625H30.5367V369.017ZM100.767 369.017V319.945H170.839V369.625H100.767V369.017ZM170.998 369.017V319.945H241.07V369.625H170.998V369.017ZM241.228 369.017V319.945H311.3V369.625H241.228V369.017ZM311.459 369.017V319.945H381.531V369.625H311.459V369.017ZM381.689 369.017V319.945H451.761V369.625H381.689V369.017ZM451.92 369.017V319.945H521.992V369.625H451.92V369.017ZM522.15 369.017V319.945H592.222V369.625H522.15V369.017ZM592.381 369.017V319.945H662.453V369.625H592.381V369.017ZM662.453 170.634V220.251H592.381V170.571H662.453V170.638V170.634ZM592.222 170.634V220.251H522.15V170.571H592.222V170.638V170.634ZM521.992 170.634V220.251H451.92V170.571H521.992V170.638V170.634ZM451.761 170.634V220.251H381.689V170.571H451.761V170.638V170.634ZM381.531 170.634V220.251H311.459V170.571H381.531V170.638V170.634ZM311.3 170.634V220.251H241.228V170.571H311.3V170.638V170.634ZM241.07 170.634V220.251H170.998V170.571H241.07V170.638V170.634ZM170.839 170.634V220.251H100.767V170.571H170.839V170.638V170.634ZM100.608 170.634V220.251H30.5367V170.571H100.608V170.638V170.634ZM30.3779 170.634V220.251H-39.6938V170.571H30.3779V170.638V170.634ZM-39.6938 419.354V369.738H30.3779V419.418H-39.6938V419.351V419.354ZM30.5367 419.354V369.738H100.608V419.418H30.5367V419.351V419.354ZM100.767 419.354V369.738H170.839V419.418H100.767V419.351V419.354ZM170.998 419.354V369.738H241.07V419.418H170.998V419.351V419.354ZM241.228 419.354V369.738H311.3V419.418H241.228V419.351V419.354ZM311.459 419.354V369.738H381.531V419.418H311.459V419.351V419.354ZM381.689 419.354V369.738H451.761V419.418H381.689V419.351V419.354ZM451.92 419.354V369.738H521.992V419.418H451.92V419.351V419.354ZM522.15 419.354V369.738H592.222V419.418H522.15V419.351V419.354ZM592.381 419.354V369.738H662.453V419.418H592.381V419.351V419.354ZM662.612 419.354V369.738H732.683V419.418H662.612V419.351V419.354ZM732.683 123.262V170.458H662.612V120.778H732.683V123.262ZM662.453 123.262V170.458H592.381V120.778H662.453V123.262ZM592.222 123.262V170.458H522.15V120.778H592.222V123.262ZM521.992 123.262V170.458H451.92V120.778H521.992V123.262ZM451.761 123.262V170.458H381.689V120.778H451.761V123.262ZM381.531 123.262V170.458H311.459V120.778H381.531V123.262ZM311.3 123.262V170.458H241.228V120.778H311.3V123.262ZM241.07 123.262V170.458H170.998V120.778H241.07V123.262ZM170.839 123.262V170.458H100.767V120.778H170.839V123.262ZM100.608 123.262V170.458H30.5367V120.778H100.608V123.262ZM30.3779 123.262V170.458H-39.6938V120.778H30.3779V123.262ZM-39.8526 123.262V170.458H-109.924V120.778H-39.8526V123.262ZM-109.924 466.73V419.534H-39.8526V469.215H-109.924V466.73ZM-39.6938 466.73V419.534H30.3779V469.215H-39.6938V466.73ZM30.5367 466.73V419.534H100.608V469.215H30.5367V466.73ZM100.767 466.73V419.534H170.839V469.215H100.767V466.73ZM170.998 466.73V419.534H241.07V469.215H170.998V466.73ZM241.228 466.73V419.534H311.3V469.215H241.228V466.73ZM311.459 466.73V419.534H381.531V469.215H311.459V466.73ZM381.689 466.73V419.534H451.761V469.215H381.689V466.73ZM451.92 466.73V419.534H521.992V469.215H451.92V466.73ZM522.15 466.73V419.534H592.222V469.215H522.15V466.73ZM592.381 466.73V419.534H662.453V469.215H592.381V466.73ZM662.612 466.73V419.534H732.683V469.215H662.612V466.73ZM732.842 466.73V419.534H802.914V469.215H732.842V466.73ZM802.914 72.9253V120.665H732.842V70.9851H802.914V72.9253ZM732.683 72.9253V120.665H662.612V70.9851H732.683V72.9253ZM662.453 72.9253V120.665H592.381V70.9851H662.453V72.9253ZM592.222 72.9253V120.665H522.15V70.9851H592.222V72.9253ZM521.992 72.9253V120.665H451.92V70.9851H521.992V72.9253ZM451.761 72.9253V120.665H381.689V70.9851H451.761V72.9253ZM381.531 72.9253V120.665H311.459V70.9851H381.531V72.9253ZM311.3 72.9253V120.665H241.228V70.9851H311.3V72.9253ZM241.07 72.9253V120.665H170.998V70.9851H241.07V72.9253ZM170.839 72.9253V120.665H100.767V70.9851H170.839V72.9253ZM100.608 72.9253V120.665H30.5367V70.9851H100.608V72.9253ZM30.3779 72.9253V120.665H-39.6938V70.9851H30.3779V72.9253ZM-39.8526 72.9253V120.665H-109.924V70.9851H-39.8526V72.9253ZM-110.083 72.9253V120.665H-180.155V70.9851H-110.083V72.9253ZM-180.155 517.067V469.327H-110.083V519.007H-180.155V517.067ZM-109.924 517.067V469.327H-39.8526V519.007H-109.924V517.067ZM-39.6938 517.067V469.327H30.3779V519.007H-39.6938V517.067ZM30.5367 517.067V469.327H100.608V519.007H30.5367V517.067ZM100.767 517.067V469.327H170.839V519.007H100.767V517.067ZM170.998 517.067V469.327H241.07V519.007H170.998V517.067ZM241.228 517.067V469.327H311.3V519.007H241.228V517.067ZM311.459 517.067V469.327H381.531V519.007H311.459V517.067ZM381.689 517.067V469.327H451.761V519.007H381.689V517.067ZM451.92 517.067V469.327H521.992V519.007H451.92V517.067ZM522.15 517.067V469.327H592.222V519.007H522.15V517.067ZM592.381 517.067V469.327H662.453V519.007H592.381V517.067ZM662.612 517.067V469.327H732.683V519.007H662.612V517.067ZM732.842 517.067V469.327H802.914V519.007H732.842V517.067ZM803.073 517.067V469.327H873.144V519.007H803.073V517.067ZM873.144 22.5921V70.8762H803.073V21.196H873.144V22.5921ZM802.914 22.5921V70.8762H732.842V21.196H802.914V22.5921ZM732.683 22.5921V70.8762H662.612V21.196H732.683V22.5921ZM662.453 22.5921V70.8762H592.381V21.196H662.453V22.5921ZM592.222 22.5921V70.8762H522.15V21.196H592.222V22.5921ZM521.992 22.5921V70.8762H451.92V21.196H521.992V22.5921ZM451.761 22.5921V70.8762H381.689V21.196H451.761V22.5921ZM381.531 22.5921V70.8762H311.459V21.196H381.531V22.5921ZM311.3 22.5921V70.8762H241.228V21.196H311.3V22.5921ZM241.07 22.5921V70.8762H170.998V21.196H241.07V22.5921ZM170.839 22.5921V70.8762H100.767V21.196H170.839V22.5921ZM100.608 22.5921V70.8762H30.5367V21.196H100.608V22.5921ZM30.3779 22.5921V70.8762H-39.6938V21.196H30.3779V22.5921ZM-39.8526 22.5921V70.8762H-109.924V21.196H-39.8526V22.5921ZM-110.083 22.5921V70.8762H-180.155V21.196H-110.083V22.5921ZM-180.314 22.5921V70.8762H-250.385V21.196H-180.314V22.5921ZM-250.385 567.404V519.12H-180.314V568.8H-250.385V567.404ZM-180.155 567.404V519.12H-110.083V568.8H-180.155V567.404ZM-109.924 567.404V519.12H-39.8526V568.8H-109.924V567.404ZM-39.6938 567.404V519.12H30.3779V568.8H-39.6938V567.404ZM30.5367 567.404V519.12H100.608V568.8H30.5367V567.404ZM100.767 567.404V519.12H170.839V568.8H100.767V567.404ZM170.998 567.404V519.12H241.07V568.8H170.998V567.404ZM241.228 567.404V519.12H311.3V568.8H241.228V567.404ZM311.459 567.404V519.12H381.531V568.8H311.459V567.404ZM381.689 567.404V519.12H451.761V568.8H381.689V567.404ZM451.92 567.404V519.12H521.992V568.8H451.92V567.404ZM522.15 567.404V519.12H592.222V568.8H522.15V567.404ZM592.381 567.404V519.12H662.453V568.8H592.381V567.404ZM662.612 567.404V519.12H732.683V568.8H662.612V567.404ZM732.842 567.404V519.12H802.914V568.8H732.842V567.404ZM803.073 567.404V519.12H873.144V568.8H803.073V567.404ZM873.303 567.404V519.12H943.375V568.8H873.303V567.404ZM943.375 -27.7448V21.0835H873.303V-28.5967H943.375V-27.7448ZM873.144 -27.7448V21.0835H803.073V-28.5967H873.144V-27.7448ZM802.914 -27.7448V21.0835H732.842V-28.5967H802.914V-27.7448ZM732.683 -27.7448V21.0835H662.612V-28.5967H732.683V-27.7448ZM662.453 -27.7448V21.0835H592.381V-28.5967H662.453V-27.7448ZM592.222 -27.7448V21.0835H522.15V-28.5967H592.222V-27.7448ZM521.992 -27.7448V21.0835H451.92V-28.5967H521.992V-27.7448ZM451.761 -27.7448V21.0835H381.689V-28.5967H451.761V-27.7448ZM381.531 -27.7448V21.0835H311.459V-28.5967H381.531V-27.7448ZM311.3 -27.7448V21.0835H241.228V-28.5967H311.3V-27.7448ZM241.07 -27.7448V21.0835H170.998V-28.5967H241.07V-27.7448ZM170.839 -27.7448V21.0835H100.767V-28.5967H170.839V-27.7448ZM100.608 -27.7448V21.0835H30.5367V-28.5967H100.608V-27.7448ZM30.3779 -27.7448V21.0835H-39.6938V-28.5967H30.3779V-27.7448ZM-39.8526 -27.7448V21.0835H-109.924V-28.5967H-39.8526V-27.7448ZM-110.083 -27.7448V21.0835H-180.155V-28.5967H-110.083V-27.7448ZM-180.314 -27.7448V21.0835H-250.385V-28.5967H-180.314V-27.7448ZM-250.544 -27.7448V21.0835H-320.616V-28.5967H-250.544V-27.7448ZM-320.616 617.737V568.909H-250.544V618.589H-320.616V617.737ZM-250.385 617.737V568.909H-180.314V618.589H-250.385V617.737ZM-180.155 617.737V568.909H-110.083V618.589H-180.155V617.737ZM-109.924 617.737V568.909H-39.8526V618.589H-109.924V617.737ZM-39.6938 617.737V568.909H30.3779V618.589H-39.6938V617.737ZM30.5367 617.737V568.909H100.608V618.589H30.5367V617.737ZM100.767 617.737V568.909H170.839V618.589H100.767V617.737ZM170.998 617.737V568.909H241.07V618.589H170.998V617.737ZM241.228 617.737V568.909H311.3V618.589H241.228V617.737ZM311.459 617.737V568.909H381.531V618.589H311.459V617.737ZM381.689 617.737V568.909H451.761V618.589H381.689V617.737ZM451.92 617.737V568.909H521.992V618.589H451.92V617.737ZM522.15 617.737V568.909H592.222V618.589H522.15V617.737ZM592.381 617.737V568.909H662.453V618.589H592.381V617.737ZM662.612 617.737V568.909H732.683V618.589H662.612V617.737ZM732.842 617.737V568.909H802.914V618.589H732.842V617.737ZM803.073 617.737V568.909H873.144V618.589H803.073V617.737ZM873.303 617.737V568.909H943.375V618.589H873.303V617.737ZM943.534 617.737V568.909H1013.61V618.589H943.534V617.737ZM945.715 -78.3932H1013.61V-28.7131H943.534V-78.3895H945.715V-78.3932ZM876.574 -78.3932H943.375V-28.7131H873.303V-78.3895H876.574V-78.3932ZM807.434 -78.3932H873.15V-28.7131H803.078V-78.3895H807.44L807.434 -78.3932ZM738.294 -78.3932H802.919V-28.7131H732.847V-78.3895H738.299L738.294 -78.3932ZM663.395 -78.3932H732.688V-28.7131H662.617V-78.3895H663.395V-78.3932ZM594.255 -78.3932H662.458V-28.7131H592.386V-78.3895H594.255V-78.3932ZM525.115 -78.3932H592.227V-28.7131H522.156V-78.3895H525.115V-78.3932ZM455.975 -78.3932H521.997V-28.7131H451.925V-78.3895H455.975V-78.3932ZM386.834 -78.3932H451.766V-28.7131H381.695V-78.3895H386.834V-78.3932ZM311.93 -78.3932H381.536V-28.7131H311.464V-78.3895H311.93V-78.3932ZM242.79 -78.3932H311.305V-28.7131H241.234V-78.3895H242.79V-78.3932ZM173.65 -78.3932H241.075V-28.7131H171.003V-78.3895H173.65V-78.3932ZM104.51 -78.3932H170.844V-28.7131H100.773V-78.3895H104.51V-78.3932ZM35.3694 -78.3932H100.614V-28.7131H30.542V-78.3895H35.3694V-78.3932ZM-39.5298 -78.3932H30.3885V-28.7131H-39.6832V-78.3895H-39.5298V-78.3932ZM-108.67 -78.3932H-39.842V-28.7131H-109.914V-78.3895H-108.67V-78.3932ZM-177.81 -78.3932H-110.073V-28.7131H-180.144V-78.3895H-177.81V-78.3932ZM-246.95 -78.3932H-180.303V-28.7131H-250.375V-78.3895H-246.95V-78.3932ZM-316.09 -78.3932H-250.534V-28.7131H-320.605V-78.3895H-316.09V-78.3932ZM-385.23 -78.3932H-320.764V-28.7131H-390.841V-78.3895H-385.236L-385.23 -78.3932ZM-321.849 668.382H-390.841V618.702H-320.769V668.382H-321.86H-321.849ZM-252.709 668.382H-320.6V618.702H-250.528V668.382H-252.709ZM-183.569 668.382H-250.375V618.702H-180.303V668.382H-183.574H-183.569ZM-114.429 668.382H-180.144V618.702H-110.073V668.382H-114.434H-114.429ZM-45.2888 668.382H-109.914V618.702H-39.842V668.382H-45.294H-45.2888ZM29.6104 668.382H-39.6832V618.702H30.3885V668.382H29.6104ZM98.7505 668.382H30.5473V618.702H100.619V668.382H98.7505ZM167.891 668.382H100.778V618.702H170.85V668.382H167.891ZM237.031 668.382H171.008V618.702H241.08V668.382H237.031ZM306.171 668.382H241.234V618.702H311.305V668.382H306.166H306.171ZM381.075 668.382H311.469V618.702H381.541V668.382H381.075ZM450.216 668.382H381.7V618.702H451.772V668.382H450.216ZM519.356 668.382H451.931V618.702H522.002V668.382H519.356ZM588.496 668.382H522.161V618.702H592.233V668.382H588.496ZM657.636 668.382H592.392V618.702H662.463V668.382H657.636ZM732.535 668.382H662.617V618.702H732.688V668.382H732.535ZM801.675 668.382H732.847V618.702H802.919V668.382H801.675ZM870.815 668.382H803.078V618.702H873.15V668.382H870.815ZM939.955 668.382H873.308V618.702H943.38V668.382H939.955ZM1009.1 668.382H943.539V618.702H1013.61V668.382H1009.1ZM1078.24 668.382H1013.77V618.702H1083.84V668.382H1078.24Z" stroke="url(#paint1_radial_134_1295)" stroke-width="3" mask="url(#path-1-outside-1_134_1295)"/>
</g>
</g>
<defs>
<radialGradient id="paint0_radial_134_1295" cx="0" cy="0" r="1" gradientUnits="userSpaceOnUse" gradientTransform="translate(381.436 369.755) rotate(90) scale(314.47 611.93)">
<stop stop-color="white"/>
<stop offset="0.911267" stop-color="white" stop-opacity="0"/>
</radialGradient>
<radialGradient id="paint1_radial_134_1295" cx="0" cy="0" r="1" gradientUnits="userSpaceOnUse" gradientTransform="translate(382.077 369.755) rotate(90) scale(307.653 598.666)">
<stop stop-color="white"/>
<stop offset="1" stop-color="white" stop-opacity="0"/>
</radialGradient>
<clipPath id="clip0_134_1295">
<rect width="692" height="690" fill="white"/>
</clipPath>
</defs>
</svg>
