<svg width="140" height="164" viewBox="0 0 140 164" fill="none" xmlns="http://www.w3.org/2000/svg">
<mask id="path-1-outside-1_2046_70" maskUnits="userSpaceOnUse" x="0.000305176" y="0" width="140" height="164" fill="black">
<rect fill="white" x="0.000305176" width="140" height="164"/>
<path d="M70.6923 162C69.7016 162 68.711 161.772 67.817 161.31L39.0082 146.397C30.8335 142.161 24.4388 137.407 19.4453 131.868C8.51621 119.756 2.43552 104.208 2.33887 88.0793L2.00061 34.9941C1.96034 28.8674 5.9148 23.3682 11.8264 21.2972L64.7243 2.85431C67.8653 1.73251 71.3688 1.71682 74.5662 2.79939L127.665 20.6147C133.609 22.5994 137.628 28.0594 137.66 34.1782L137.999 87.3026C138.103 103.408 132.232 119.019 121.472 131.264C116.535 136.881 110.197 141.706 102.102 146.02L73.5514 161.27C72.6655 161.749 71.6829 161.992 70.6923 162"/>
</mask>
<path d="M70.6923 162C69.7016 162 68.711 161.772 67.817 161.31L39.0082 146.397C30.8335 142.161 24.4388 137.407 19.4453 131.868C8.51621 119.756 2.43552 104.208 2.33887 88.0793L2.00061 34.9941C1.96034 28.8674 5.9148 23.3682 11.8264 21.2972L64.7243 2.85431C67.8653 1.73251 71.3688 1.71682 74.5662 2.79939L127.665 20.6147C133.609 22.5994 137.628 28.0594 137.66 34.1782L137.999 87.3026C138.103 103.408 132.232 119.019 121.472 131.264C116.535 136.881 110.197 141.706 102.102 146.02L73.5514 161.27C72.6655 161.749 71.6829 161.992 70.6923 162" fill="#D5E4FB"/>
<path d="M67.817 161.31L68.7365 159.534L68.7364 159.534L67.817 161.31ZM39.0082 146.397L38.0881 148.173L38.0888 148.173L39.0082 146.397ZM19.4453 131.868L20.9307 130.529L20.9302 130.529L19.4453 131.868ZM2.33887 88.0793L4.33884 88.0673L4.33883 88.0665L2.33887 88.0793ZM2.00061 34.9941L4.00057 34.9814L4.00057 34.9809L2.00061 34.9941ZM11.8264 21.2972L11.1679 19.4087L11.1651 19.4097L11.8264 21.2972ZM64.7243 2.85431L65.3828 4.74281L65.3899 4.74033L65.397 4.73779L64.7243 2.85431ZM74.5662 2.79939L73.9248 4.69376L73.93 4.69552L74.5662 2.79939ZM127.665 20.6147L127.029 22.5109L127.032 22.5118L127.665 20.6147ZM137.66 34.1782L135.66 34.1888L135.66 34.191L137.66 34.1782ZM137.999 87.3026L135.999 87.3154L135.999 87.3156L137.999 87.3026ZM121.472 131.264L122.974 132.585L122.974 132.585L121.472 131.264ZM102.102 146.02L101.162 144.255L101.16 144.256L102.102 146.02ZM73.5514 161.27L72.6091 159.506L72.6009 159.511L73.5514 161.27ZM70.6923 162V160C70.0056 160 69.3325 159.842 68.7365 159.534L67.817 161.31L66.8975 163.086C68.0895 163.703 69.3976 164 70.6923 164V162ZM67.817 161.31L68.7364 159.534L39.9277 144.621L39.0082 146.397L38.0888 148.173L66.8976 163.086L67.817 161.31ZM39.0082 146.397L39.9284 144.621C31.9195 140.471 25.7313 135.854 20.9307 130.529L19.4453 131.868L17.9599 133.208C23.1462 138.96 29.7476 143.851 38.0881 148.173L39.0082 146.397ZM19.4453 131.868L20.9302 130.529C10.3251 118.776 4.4325 103.698 4.33884 88.0673L2.33887 88.0793L0.338909 88.0913C0.438539 104.718 6.70727 120.737 17.9605 133.208L19.4453 131.868ZM2.33887 88.0793L4.33883 88.0665L4.00057 34.9814L2.00061 34.9941L0.000650496 35.0068L0.338914 88.092L2.33887 88.0793ZM2.00061 34.9941L4.00057 34.9809C3.96611 29.738 7.35452 24.983 12.4876 23.1847L11.8264 21.2972L11.1651 19.4097C4.47508 21.7534 -0.0454251 27.9968 0.000653094 35.0072L2.00061 34.9941ZM11.8264 21.2972L12.4848 23.1857L65.3828 4.74281L64.7243 2.85431L64.0659 0.965795L11.1679 19.4087L11.8264 21.2972ZM64.7243 2.85431L65.397 4.73779C68.1058 3.77036 71.1461 3.75295 73.9248 4.69376L74.5662 2.79939L75.2076 0.905028C71.5915 -0.31931 67.6249 -0.305333 64.0516 0.970822L64.7243 2.85431ZM74.5662 2.79939L73.93 4.69552L127.029 22.5109L127.665 20.6147L128.302 18.7186L75.2023 0.903267L74.5662 2.79939ZM127.665 20.6147L127.032 22.5118C132.188 24.2336 135.633 28.9526 135.66 34.1888L137.66 34.1782L139.66 34.1677C139.623 27.1661 135.03 20.9653 128.299 18.7177L127.665 20.6147ZM137.66 34.1782L135.66 34.191L135.999 87.3154L137.999 87.3026L139.999 87.2899L139.66 34.1655L137.66 34.1782ZM137.999 87.3026L135.999 87.3156C136.1 102.924 130.411 118.062 119.97 129.944L121.472 131.264L122.974 132.585C134.054 119.976 140.107 103.892 139.999 87.2896L137.999 87.3026ZM121.472 131.264L119.97 129.944C115.224 135.344 109.091 140.029 101.162 144.255L102.102 146.02L103.043 147.785C111.302 143.383 117.846 138.419 122.974 132.585L121.472 131.264ZM102.102 146.02L101.16 144.256L72.6091 159.506L73.5514 161.27L74.4937 163.035L103.045 147.784L102.102 146.02ZM73.5514 161.27L72.6009 159.511C72.0109 159.829 71.3505 159.995 70.6764 160L70.6923 162L70.7081 164C72.0153 163.99 73.3201 163.669 74.5019 163.03L73.5514 161.27Z" fill="#004FEE" mask="url(#path-1-outside-1_2046_70)"/>
<path d="M64.5536 100.567C63.0072 100.575 61.4609 100.018 60.2689 98.8729L44.9343 84.1248C42.5665 81.8341 42.5423 78.1157 44.886 75.8094C47.2297 73.4952 51.0553 73.4717 53.4312 75.7545L64.465 86.3605L91.4053 59.7983C93.757 57.4841 97.5826 57.4606 99.9504 59.7434C102.326 62.0341 102.351 65.7603 100.007 68.0588L68.8141 98.8179C67.6382 99.979 66.0999 100.559 64.5536 100.567" fill="#004FEE"/>
</svg>
