<svg width="308" height="362" viewBox="0 0 308 362" fill="none" xmlns="http://www.w3.org/2000/svg">
<g opacity="0.7">
<mask id="path-1-outside-1_134_1283" maskUnits="userSpaceOnUse" x="0" y="0" width="308" height="362" fill="black">
<rect fill="white" width="308" height="362"/>
<path d="M155.547 359.648C153.333 359.648 151.118 359.14 149.12 358.105L84.7239 324.77C66.451 315.301 52.1567 304.675 40.9949 292.295C16.565 265.221 2.97284 230.466 2.7568 194.413L2.00068 75.7517C1.91067 62.0567 10.7501 49.7644 23.9642 45.1351L142.207 3.90963C149.228 1.40208 157.059 1.36701 164.207 3.78688L282.899 43.6095C296.186 48.046 305.169 60.2505 305.241 73.928L305.997 192.677C306.231 228.677 293.107 263.572 269.055 290.945C258.02 303.5 243.851 314.284 225.758 323.929L161.938 358.017C159.958 359.087 157.762 359.631 155.547 359.648Z"/>
</mask>
<path d="M155.547 359.648C153.333 359.648 151.118 359.14 149.12 358.105L84.7239 324.77C66.451 315.301 52.1567 304.675 40.9949 292.295C16.565 265.221 2.97284 230.466 2.7568 194.413L2.00068 75.7517C1.91067 62.0567 10.7501 49.7644 23.9642 45.1351L142.207 3.90963C149.228 1.40208 157.059 1.36701 164.207 3.78688L282.899 43.6095C296.186 48.046 305.169 60.2505 305.241 73.928L305.997 192.677C306.231 228.677 293.107 263.572 269.055 290.945C258.02 303.5 243.851 314.284 225.758 323.929L161.938 358.017C159.958 359.087 157.762 359.631 155.547 359.648Z" fill="url(#paint0_radial_134_1283)"/>
<path d="M149.12 358.105L149.786 356.819L149.786 356.819L149.12 358.105ZM84.7239 324.77L84.0578 326.056L84.0584 326.056L84.7239 324.77ZM40.9949 292.295L42.07 291.326L42.0697 291.325L40.9949 292.295ZM2.7568 194.413L4.2044 194.404L4.20439 194.404L2.7568 194.413ZM2.00068 75.7517L3.44827 75.7425L3.44827 75.7422L2.00068 75.7517ZM23.9642 45.1351L23.4876 43.7682L23.4856 43.7689L23.9642 45.1351ZM142.207 3.90963L142.684 5.27659L142.694 5.27291L142.207 3.90963ZM164.207 3.78688L163.742 5.15805L163.746 5.15932L164.207 3.78688ZM282.899 43.6095L282.439 44.982L282.441 44.9826L282.899 43.6095ZM305.241 73.928L303.793 73.9357V73.9373L305.241 73.928ZM305.997 192.677L304.55 192.686V192.686L305.997 192.677ZM269.055 290.945L270.143 291.901L270.143 291.9L269.055 290.945ZM225.758 323.929L225.077 322.651L225.076 322.652L225.758 323.929ZM161.938 358.017L161.256 356.74L161.25 356.744L161.938 358.017ZM155.547 359.648V358.2C153.553 358.2 151.568 357.742 149.786 356.819L149.12 358.105L148.455 359.391C150.669 360.537 153.113 361.096 155.547 361.096V359.648ZM149.12 358.105L149.786 356.819L85.3894 323.485L84.7239 324.77L84.0584 326.056L148.455 359.391L149.12 358.105ZM84.7239 324.77L85.3899 323.485C67.237 314.078 53.0922 303.551 42.07 291.326L40.9949 292.295L39.9197 293.264C51.2211 305.799 65.6649 316.524 84.0578 326.056L84.7239 324.77ZM40.9949 292.295L42.0697 291.325C17.8743 264.511 4.41827 230.097 4.2044 194.404L2.7568 194.413L1.30921 194.422C1.5274 230.835 15.2557 265.93 39.9201 293.265L40.9949 292.295ZM2.7568 194.413L4.20439 194.404L3.44827 75.7425L2.00068 75.7517L0.553089 75.7609L1.30921 194.422L2.7568 194.413ZM2.00068 75.7517L3.44827 75.7422C3.36246 62.6868 11.7922 50.9332 24.4428 46.5013L23.9642 45.1351L23.4856 43.7689C9.70799 48.5956 0.458872 61.4265 0.553091 75.7612L2.00068 75.7517ZM23.9642 45.1351L24.4408 46.502L142.684 5.27655L142.207 3.90963L141.73 2.54271L23.4876 43.7682L23.9642 45.1351ZM142.207 3.90963L142.694 5.27291C149.402 2.8771 156.898 2.84079 163.742 5.15804L164.207 3.78688L164.671 2.41572C157.221 -0.106763 149.054 -0.0729311 141.72 2.54634L142.207 3.90963ZM164.207 3.78688L163.746 5.15932L282.439 44.982L282.899 43.6095L283.36 42.2371L164.667 2.41445L164.207 3.78688ZM282.899 43.6095L282.441 44.9826C295.157 49.2287 303.725 60.8971 303.793 73.9357L305.241 73.928L306.689 73.9204C306.613 59.604 297.214 46.8632 283.358 42.2364L282.899 43.6095ZM305.241 73.928L303.793 73.9373L304.55 192.686L305.997 192.677L307.445 192.668L306.689 73.9188L305.241 73.928ZM305.997 192.677L304.55 192.686C304.781 228.327 291.789 262.88 267.968 289.989L269.055 290.945L270.143 291.9C294.426 264.265 307.681 229.027 307.445 192.668L305.997 192.677ZM269.055 290.945L267.968 289.989C257.07 302.387 243.051 313.07 225.077 322.651L225.758 323.929L226.439 325.206C244.652 315.498 258.969 304.613 270.143 291.901L269.055 290.945ZM225.758 323.929L225.076 322.652L161.256 356.74L161.938 358.017L162.62 359.294L226.44 325.206L225.758 323.929ZM161.938 358.017L161.25 356.744C159.484 357.698 157.521 358.185 155.536 358.201L155.547 359.648L155.559 361.096C158.002 361.076 160.432 360.476 162.626 359.291L161.938 358.017Z" fill="#D0E1FB" mask="url(#path-1-outside-1_134_1283)"/>
</g>
<defs>
<radialGradient id="paint0_radial_134_1283" cx="0" cy="0" r="1" gradientUnits="userSpaceOnUse" gradientTransform="translate(154 180.824) rotate(90) scale(178.824 152)">
<stop offset="0.788462" stop-color="#D5E4FB" stop-opacity="0"/>
<stop offset="1" stop-color="#D5E4FB" stop-opacity="0.61"/>
</radialGradient>
</defs>
</svg>
