<svg width="38" height="38" viewBox="0 0 38 38" fill="none" xmlns="http://www.w3.org/2000/svg">
<path fill-rule="evenodd" clip-rule="evenodd" d="M34.625 18.1926C27.3584 16.3193 21.68 10.6409 19.8067 3.37427L19 0.245941L18.1934 3.37427C16.32 10.6409 10.6417 16.3193 3.37504 18.1926L0.246704 18.9993L3.37504 19.8076C10.6417 21.6809 16.32 27.3593 18.1934 34.6243L19 37.7543L19.8067 34.6243C21.68 27.3593 27.3584 21.6809 34.625 19.8076L37.7534 18.9993L34.625 18.1926Z" fill="white"/>
<path fill-rule="evenodd" clip-rule="evenodd" d="M30.2515 11.9117C30.2515 9.97501 32.3748 7.74668 34.4165 7.74668C32.4515 7.74668 30.2515 5.49501 30.2515 3.58334C30.2515 5.49501 28.0715 7.74668 26.0881 7.74668C27.9965 7.74668 30.2515 9.96334 30.2515 11.9117Z" fill="white"/>
</svg>
