<svg width="692" height="311" viewBox="0 0 692 311" fill="none" xmlns="http://www.w3.org/2000/svg">
<rect x="311" width="97" height="97" rx="4" fill="#9EC5FF"/>
<rect x="-10" width="97" height="97" rx="4" fill="#9EC5FF"/>
<rect x="418" width="97" height="97" rx="4" fill="#9EC5FF"/>
<rect x="97" width="97" height="97" rx="4" fill="#9EC5FF"/>
<rect x="525" width="97" height="97" rx="4" fill="#9EC5FF"/>
<rect x="204" width="97" height="97" rx="4" fill="#9EC5FF"/>
<rect x="632" width="97" height="97" rx="4" fill="#9EC5FF"/>
<rect x="-84" y="107" width="97" height="97" rx="4" fill="#9EC5FF"/>
<rect x="344" y="107" width="97" height="97" rx="4" fill="#9EC5FF"/>
<rect x="23" y="107" width="97" height="97" rx="4" fill="#9EC5FF"/>
<rect x="451" y="107" width="97" height="97" rx="4" fill="#9EC5FF"/>
<rect x="130" y="107" width="97" height="97" rx="4" fill="#9EC5FF"/>
<rect x="558" y="107" width="97" height="97" rx="4" fill="#9EC5FF"/>
<rect x="237" y="107" width="97" height="97" rx="4" fill="#9EC5FF"/>
<rect x="665" y="107" width="97" height="97" rx="4" fill="#9EC5FF"/>
<rect x="284" y="214" width="97" height="97" rx="4" fill="#9EC5FF"/>
<rect x="-37" y="214" width="97" height="97" rx="4" fill="#9EC5FF"/>
<rect x="391" y="214" width="97" height="97" rx="4" fill="#9EC5FF"/>
<rect x="70" y="214" width="97" height="97" rx="4" fill="#9EC5FF"/>
<rect x="498" y="214" width="97" height="97" rx="4" fill="#9EC5FF"/>
<rect x="177" y="214" width="97" height="97" rx="4" fill="#9EC5FF"/>
<rect x="605" y="214" width="97" height="97" rx="4" fill="#9EC5FF"/>
</svg>
